<svg width="703" height="703" viewBox="0 0 703 703" fill="none" xmlns="http://www.w3.org/2000/svg">
<path d="M351.028 -2.32327e-06C544.618 -2.32327e-06 702.056 157.438 702.056 351.017C702.056 544.596 544.618 702.034 351.028 702.034C157.438 702.034 0 544.603 0 351.017C0 157.445 157.438 -2.32327e-06 351.028 -2.32327e-06Z" fill="black"/>
<path d="M351.028 695.956C541.281 695.956 695.993 541.161 695.993 351.002C695.993 160.759 541.274 6.03497 351.028 6.03497C160.768 6.03497 6.06189 160.759 6.06189 351.002C6.06189 541.161 160.775 695.956 351.028 695.956Z" fill="white"/>
<path d="M346.173 14.0234C341.011 14.0997 335.93 14.3025 330.838 14.5534C330.664 20.9193 330.667 27.6686 330.562 34.6609C330.556 35.7612 330.562 37.2156 330.562 38.3159C336.28 37.8636 342.073 37.6864 347.867 37.6864V34.0315C347.337 27.0313 346.708 20.3192 346.173 14.0234ZM356.106 14.0234C355.482 20.3192 354.885 27.0317 354.357 34.032C354.322 35.1253 354.357 36.5969 354.357 37.698C360.151 37.698 365.862 37.9616 371.551 38.3164V34.6614C371.551 27.6617 371.549 20.9187 371.452 14.5539C366.387 14.303 361.268 14.0997 356.106 14.0234ZM320.827 15.3264C315.741 15.7581 310.651 16.2795 305.559 16.9827V20.6376C305.989 26.9267 306.439 33.6759 306.967 40.6683C312.684 39.8676 318.28 39.2762 324.094 38.747V35.092C323.019 28.1969 321.979 21.5453 320.827 15.3264ZM381.031 15.3264C379.976 21.5453 378.918 28.1967 377.863 35.0919C377.78 36.1851 377.863 37.6418 377.863 38.7358C379.695 38.9025 381.508 39.1069 383.319 39.2879C384.451 39.4066 385.572 39.5051 386.696 39.6302C389.492 39.9369 392.282 40.2827 395.079 40.6792C395.502 33.6868 396.045 26.9376 396.399 20.6485V16.9825C392.854 16.502 389.325 16.1196 385.773 15.7789C385.371 15.7365 384.976 15.6707 384.574 15.6354C383.402 15.5308 382.22 15.4242 381.031 15.3264ZM295.91 18.4839C290.921 19.2641 285.795 20.2472 280.883 21.2775V24.9215C281.688 31.2173 282.665 37.8636 283.699 44.7864C289.243 43.5533 294.962 42.5054 300.651 41.6284V37.9735C299.069 31.1553 297.485 24.5994 295.91 18.4839ZM406.303 18.4949C404.728 24.6861 403.144 31.155 401.562 37.9732C401.437 39.0594 401.562 40.5278 401.562 41.6281C407.259 42.5822 412.873 43.6381 418.514 44.8635C419.541 37.969 420.522 31.2231 421.396 25.0319V21.3769C416.384 20.3254 411.395 19.3723 406.303 18.4949ZM271.336 23.4531C266.34 24.6856 261.331 25.9842 256.419 27.3841V31.0501C257.821 37.269 259.227 43.9092 260.809 50.7274C266.248 49.049 271.865 47.5759 277.485 46.2664V42.6115C275.373 35.8639 273.257 29.4985 271.336 23.4531ZM431.052 23.5525C430.441 25.2931 429.834 27.0713 429.237 28.8748C428.897 29.8988 428.554 30.9663 428.214 32.0108C427.075 35.4651 425.934 38.9902 424.726 42.6113C424.553 43.6982 424.726 45.173 424.726 46.2662C430.347 47.5686 435.975 49.0488 441.415 50.7272C443.094 43.9022 444.461 37.348 445.87 31.1494V27.4834C440.958 26.083 436.042 24.7782 431.052 23.5525ZM247.111 30.2661C242.206 31.847 237.362 33.6028 232.547 35.4338V39.0888C234.302 45.1273 236.328 51.6097 238.333 58.2471C243.675 56.2202 249.114 54.2875 254.658 52.5601V48.9052C252.123 42.4352 249.573 36.1374 247.111 30.2661ZM455.102 30.3765C452.645 36.2122 450.009 42.4356 447.457 48.905C447.255 49.9849 447.457 51.4667 447.457 52.56C453 54.3917 458.432 56.2208 463.781 58.3238C465.803 51.6056 467.803 45.2165 469.588 39.1016V35.4356C464.744 33.6044 459.934 31.9578 455.102 30.3765ZM223.495 38.9231C218.68 40.9287 213.966 42.9533 209.282 45.1397V48.7947C211.565 54.7428 213.971 61.0301 216.587 67.5001C221.749 65.0697 227.03 62.7893 232.373 60.6095V56.9546C229.382 50.7306 226.29 44.6077 223.49 38.9185L223.495 38.9231ZM478.898 39.1218C475.991 44.7139 472.898 50.736 469.845 57.0324C469.595 58.0981 469.845 59.583 469.845 60.6763C475.208 62.884 480.48 65.1411 485.642 67.5996C488.279 61.1297 490.735 54.8406 492.913 48.8722V45.2172C488.278 43.0372 483.618 41.0231 478.898 39.1218ZM351.028 43.6049C181.489 43.6049 43.6041 181.473 43.6041 351.019C43.6041 520.456 181.489 658.421 351.028 658.421C520.566 658.421 658.429 520.456 658.429 351.019C658.429 181.473 520.566 43.6049 351.028 43.6049ZM351.028 47.7899C518.24 47.7899 654.272 183.821 654.272 351.02C654.272 518.219 518.246 654.238 351.028 654.238C183.815 654.238 47.7608 518.219 47.7608 351.02C47.7608 183.821 183.81 47.7899 351.028 47.7899ZM501.343 49.3247C498.11 54.7641 494.69 60.533 491.179 66.5506C490.894 67.6093 491.179 69.1053 491.179 70.2056C493.698 71.4868 496.197 72.7758 498.681 74.0924C499.43 74.4825 500.165 74.9028 500.914 75.307C502.767 76.3098 504.62 77.296 506.458 78.3546C509.422 72.0384 512.321 65.9411 514.951 60.1461V56.5022C510.462 53.9673 506.006 51.6093 501.343 49.3247ZM200.684 49.3357C196.042 51.6135 191.484 54.0717 186.988 56.5022V60.1572C189.625 66.0211 192.531 72.0308 195.591 78.3549C200.607 75.4716 205.709 72.8401 210.871 70.3053V66.6504C207.356 60.6067 203.94 54.7751 200.684 49.3357ZM323.519 59.627L311.309 61.6698L311.518 62.9286C311.893 62.865 312.303 62.8411 312.761 62.8623C313.219 62.8827 313.474 63.0541 313.531 63.3813C313.579 63.6598 313.502 63.9905 313.322 64.353C313.148 64.7219 312.924 65.2129 312.64 65.8327L306.336 78.4758C305.566 77.5981 304.58 76.5352 303.366 75.2956C302.159 74.0561 300.999 72.8511 299.868 71.6738C298.744 70.4901 297.744 69.4336 296.898 68.4937C296.051 67.5602 295.609 66.9399 295.567 66.6607C295.483 66.1943 295.62 65.8699 295.974 65.689C296.328 65.5144 296.713 65.3953 297.129 65.3246L296.92 64.0658L282.399 66.4729L282.608 67.7428C283.073 67.6665 283.673 67.7253 284.401 67.9416C285.13 68.1571 285.693 68.4806 286.096 68.8912L302.706 85.5648L304.764 98.0422C304.833 98.4599 304.743 98.8009 304.5 99.0581C304.257 99.316 303.922 99.4733 303.498 99.544L303.707 100.803L314.741 98.9698L314.532 97.711C313.464 97.8855 312.856 97.5532 312.717 96.7172L310.66 84.2397L319.735 65.3799C320.158 64.4471 320.523 63.6953 320.835 63.1384C321.147 62.5808 321.466 62.1492 321.771 61.8354C322.076 61.5224 322.386 61.298 322.706 61.1729C323.01 61.0542 323.354 60.9604 323.729 60.8968L323.519 59.627ZM377.401 60.1128C376.067 60.1712 374.711 60.3296 373.33 60.5766C370.576 61.0783 368.01 61.985 365.652 63.3151C363.278 64.6387 361.274 66.4195 359.623 68.6484C357.965 70.8844 356.982 73.633 356.642 76.8857C356.309 80.1309 356.726 83.021 357.885 85.5425C359.051 88.0703 360.646 90.2191 362.693 92.0023C364.74 93.7852 367.065 95.1718 369.667 96.1541C372.269 97.1357 374.864 97.7663 377.445 98.0312C380.026 98.3026 382.695 98.2131 385.442 97.7883C388.19 97.3565 390.744 96.4832 393.109 95.1603C395.476 93.8296 397.487 92.0512 399.138 89.8159C400.789 87.5799 401.779 84.8347 402.119 81.5894C402.452 78.3372 402.042 75.4609 400.876 72.9326C399.717 70.4118 398.104 68.2449 396.058 66.4621C394.017 64.6791 391.696 63.2624 389.094 62.2109C386.499 61.1593 383.909 60.4954 381.328 60.2233C380.037 60.0912 378.734 60.0544 377.401 60.1128ZM523.728 61.5704C520.044 66.7307 516.182 72.2455 512.145 78.0121C511.818 79.0566 512.145 80.5668 512.145 81.6671C517.161 84.5504 521.971 87.605 526.71 90.8428C530.297 84.7211 533.633 78.9618 536.72 73.4733V69.8073C532.501 66.8964 528.113 64.2232 523.728 61.5704ZM178.044 61.7692C173.583 64.3733 169.187 67.1766 164.976 69.9623V73.6173C168.14 79.133 171.547 85.0019 175.085 90.9427C179.893 87.788 184.738 84.7254 189.727 81.7443V78.0894C185.689 72.4199 181.728 66.9088 178.044 61.7692ZM416.9 66.0866L416.537 67.3234C417.709 67.6647 418.181 68.2422 417.945 69.057L408.924 100.019C408.688 100.834 407.974 101.074 406.801 100.726L406.438 101.952L417.989 105.342L418.341 104.116C417.751 103.949 417.292 103.69 416.966 103.376C416.639 103.056 416.544 102.694 416.669 102.283L420.519 89.0655L433.83 92.9745C434.733 93.2388 435.401 93.5957 435.81 94.0345C436.22 94.4805 436.269 95.2316 435.964 96.276L437.185 96.6294L440.056 86.8131L438.835 86.4487C438.648 87.0826 438.283 87.4292 437.735 87.4646C437.18 87.4991 436.448 87.3755 435.546 87.1112L422.235 83.2023L424.699 74.7553L446.712 81.2151C447.656 81.4935 448.281 81.8132 448.593 82.1757C448.899 82.5375 448.992 82.9659 448.846 83.4677L450.067 83.832L452.696 74.8327L451.464 74.4683C451.318 74.9701 451.012 75.3136 450.54 75.4952C450.068 75.6761 449.36 75.6301 448.417 75.3517L416.9 66.0866ZM377.969 66.6608C378.874 66.6122 379.769 66.6331 380.664 66.7271C382.447 66.908 384.202 67.3775 385.922 68.1294C387.65 68.8814 389.173 69.8618 390.499 71.0667C391.824 72.2715 392.85 73.7001 393.579 75.351C394.314 76.994 394.578 78.8104 394.371 80.7948C394.169 82.7728 393.544 84.4893 392.49 85.9515C391.442 87.4143 390.143 88.5947 388.595 89.5071C387.062 90.4194 385.363 91.0674 383.524 91.4505C381.679 91.8264 379.868 91.9295 378.079 91.7486C376.303 91.5599 374.552 91.0981 372.832 90.3462C371.104 89.5936 369.581 88.6099 368.255 87.398C366.937 86.1931 365.904 84.7645 365.175 83.1136C364.441 81.4699 364.175 79.666 364.383 77.6809C364.577 75.7028 365.216 73.9864 366.264 72.5242C367.319 71.0613 368.607 69.87 370.147 68.9576C371.687 68.0452 373.373 67.4011 375.219 67.0252C376.141 66.8336 377.063 66.7095 377.969 66.6608ZM269.164 68.3723L267.964 68.803C268.186 69.4298 268.153 69.9278 267.854 70.2826C267.556 70.6451 267.201 70.8982 266.798 71.0445L237.24 81.7224C236.838 81.8694 236.411 81.8941 235.953 81.8108C235.495 81.7274 235.159 81.3705 234.93 80.7507L233.731 81.1814L237.097 90.5448L238.296 90.1031C238.074 89.4834 238.108 88.99 238.406 88.6345C238.704 88.2727 239.048 88.0189 239.451 87.8726L250.43 83.9085L259.978 110.509C260.123 110.906 260.107 111.243 259.934 111.536C259.767 111.829 259.521 112.032 259.208 112.143L259.637 113.347L269.901 109.637L269.461 108.433C268.49 108.782 267.859 108.557 267.569 107.76L258.02 81.159L269.01 77.1949C269.413 77.0479 269.839 77.0121 270.297 77.0955C270.755 77.1859 271.091 77.5468 271.32 78.1665L272.514 77.7312L269.157 68.3689L269.164 68.3723ZM544.72 75.1301C540.585 80.019 536.371 85.2754 531.882 90.6661C531.507 91.6972 531.882 93.2318 531.882 94.3321C536.649 97.6684 541.276 101.069 545.841 104.579C549.776 98.7911 553.573 93.2958 557.084 87.9605V84.2945C553.018 81.1603 548.911 78.0897 544.72 75.1301ZM157.187 75.3067C152.948 78.2876 148.833 81.3481 144.767 84.4056V88.0605C148.382 93.3749 152.175 98.89 156.109 104.657C160.668 101.07 165.259 97.7672 169.97 94.4315V90.7655C165.613 85.3543 161.294 80.1959 157.187 75.3067ZM220.421 89.9263L210.026 95.4143L210.609 96.5406C211.691 95.9696 212.442 96.0537 212.831 96.8055L227.781 125.361C228.176 126.113 227.829 126.777 226.747 127.348L227.341 128.475L237.736 122.998L237.142 121.86C236.06 122.431 235.316 122.347 234.92 121.595L219.982 93.0402C219.579 92.2875 219.926 91.6236 221.016 91.0526L220.413 89.9219L220.421 89.9263ZM564.81 90.4232C560.321 94.985 555.67 99.8698 550.861 104.933C550.458 105.95 550.861 107.487 550.861 108.588C555.322 112.271 559.707 115.938 563.919 119.873C568.311 114.434 572.53 109.12 576.493 104.126V100.471C572.607 97.0657 568.744 93.6548 564.81 90.4232ZM136.973 90.6772C132.942 94.0065 129.078 97.3354 125.213 100.825V104.48C129.258 109.369 133.489 114.61 137.853 120.049C142.168 116.191 146.482 112.428 150.943 108.764V105.109C146.128 100.038 141.458 95.2323 136.969 90.6698L136.973 90.6772ZM487.067 91.947L486.396 93.0402C487.159 93.5137 487.312 94.1047 486.869 94.8291L469.939 122.247C469.495 122.971 468.88 123.096 468.124 122.622L467.453 123.704L476.539 129.358L477.199 128.276C476.928 128.102 476.731 127.856 476.627 127.536C476.516 127.216 476.574 126.882 476.803 126.52L483.81 115.169L503.172 127.216L496.164 138.567C495.714 139.292 495.055 139.375 494.173 138.832L493.502 139.914L502.765 145.678L503.436 144.585C503.151 144.411 502.957 144.177 502.853 143.856C502.741 143.543 502.796 143.185 503.018 142.829L519.948 115.412C520.169 115.05 520.451 114.847 520.784 114.804C521.117 114.762 521.423 114.829 521.708 115.003L522.379 113.921L513.105 108.157L512.445 109.239C513.327 109.783 513.539 110.425 513.094 111.15L506.758 121.419L487.385 109.372L493.722 99.1024C493.951 98.7405 494.225 98.5375 494.558 98.4951C494.891 98.4532 495.198 98.5092 495.482 98.6828L496.153 97.6006L487.067 91.947ZM351.035 105.684C215.763 105.684 105.697 215.725 105.697 351.009C105.697 486.283 215.763 596.347 351.035 596.347C486.307 596.347 596.351 486.283 596.351 351.009C596.351 215.731 486.307 105.684 351.035 105.684ZM196.574 106.578L195.551 106.622C195.489 107.019 195.194 107.409 194.66 107.792C194.16 108.154 193.435 108.461 192.471 108.698C191.5 108.928 190.345 109.268 189.006 109.714C187.667 110.159 186.143 110.774 184.429 111.547C182.716 112.326 180.852 113.446 178.819 114.915C176.453 116.636 174.584 118.417 173.231 120.248C171.878 122.08 170.939 123.857 170.426 125.57C169.912 127.291 169.796 128.92 170.074 130.473C170.351 132.026 170.925 133.401 171.779 134.592C173.049 136.361 174.414 137.542 175.871 138.147C177.328 138.752 178.83 138.974 180.37 138.821C181.918 138.661 183.49 138.208 185.079 137.463C186.668 136.718 188.225 135.885 189.765 134.945C191.298 134.005 192.784 133.057 194.22 132.096C195.656 131.142 196.985 130.359 198.213 129.766C199.441 129.161 200.553 128.832 201.524 128.762C202.496 128.706 203.295 129.114 203.934 129.998C204.572 130.882 204.725 131.855 204.385 132.913C204.045 133.979 203.483 135.037 202.713 136.06C201.935 137.092 201.07 138.027 200.105 138.876C199.148 139.719 198.348 140.375 197.696 140.842C196.815 141.483 195.747 142.105 194.484 142.697C193.228 143.296 191.963 143.786 190.7 144.176C189.437 144.566 188.25 144.817 187.147 144.949C186.043 145.075 185.191 145.004 184.594 144.74C184.254 144.579 183.953 144.33 183.703 143.989L182.922 144.121L184.792 153.375L185.926 153.242C185.939 152.769 186.08 152.443 186.344 152.248C186.767 151.949 187.364 151.723 188.148 151.597C188.925 151.472 189.938 151.238 191.173 150.89C192.408 150.549 193.852 149.967 195.496 149.145C197.147 148.323 199.064 147.123 201.25 145.535C202.811 144.4 204.419 143.049 206.057 141.482C207.694 139.908 209.031 138.192 210.072 136.325C211.113 134.459 211.704 132.517 211.843 130.484C211.982 128.457 211.321 126.436 209.885 124.444C208.643 122.717 207.302 121.569 205.859 120.977C204.416 120.386 202.918 120.172 201.37 120.325C199.823 120.486 198.254 120.919 196.651 121.65C195.048 122.375 193.476 123.206 191.943 124.146C190.403 125.086 188.916 126.028 187.466 126.961C186.016 127.901 184.662 128.65 183.406 129.214C182.151 129.771 181.028 130.065 180.029 130.086C179.023 130.114 178.191 129.665 177.532 128.739C177.061 128.091 176.892 127.373 177.059 126.586C177.219 125.799 177.559 125.006 178.093 124.212C178.627 123.418 179.297 122.625 180.095 121.838C180.9 121.051 181.724 120.353 182.57 119.74C183.681 118.932 184.861 118.233 186.124 117.642C187.386 117.05 188.613 116.577 189.82 116.229C191.02 115.88 192.137 115.676 193.164 115.599C194.191 115.523 195.012 115.598 195.65 115.842C196.129 116.016 196.605 116.355 197.069 116.836L197.806 116.648L196.574 106.578ZM583.487 107.042C578.775 111.235 573.749 115.688 568.559 120.403V124.069C572.694 128.108 576.839 132.118 580.78 136.304C585.512 131.163 590.068 126.244 594.355 121.529V117.874C590.845 114.12 587.171 110.531 583.487 107.042ZM118.369 107.119C116.531 108.909 114.691 110.708 112.88 112.519C111.055 114.337 109.26 116.17 107.512 118.051C107.116 119.068 107.512 120.612 107.512 121.706C111.8 126.421 116.37 131.312 121.185 136.403C125.147 132.189 129.184 128.169 133.396 124.235V120.58C128.234 115.865 123.206 111.409 118.369 107.119ZM351.035 109.857C483.98 109.857 592.189 218.061 592.189 351.005C592.189 483.944 483.98 592.153 351.035 592.153C218.09 592.153 109.87 483.944 109.87 351.005C109.87 218.061 218.09 109.857 351.035 109.857ZM101.101 124.864C97.6592 128.702 94.3345 132.567 91.1009 136.58C90.7405 137.617 91.1009 139.141 91.1009 140.235C95.6595 144.622 100.575 149.235 105.765 153.971C109.352 149.507 113.11 145.123 116.974 140.931V137.276C111.458 132.916 106.187 128.799 101.101 124.864ZM600.958 124.864C595.866 128.799 590.6 132.916 585.084 137.275V140.941C588.949 145.127 592.707 149.507 596.294 153.971C601.484 149.158 606.399 144.62 610.957 140.135V136.48C607.724 132.566 604.393 128.702 600.958 124.864ZM534.255 132.146C532.917 132.234 531.583 132.473 530.25 132.852C527.586 133.604 525.132 135.155 522.891 137.523C520.65 139.891 519.207 142.433 518.59 145.142C517.979 147.859 517.935 150.547 518.469 153.214C519.003 155.882 520.004 158.41 521.461 160.778C522.925 163.16 524.597 165.238 526.477 167.028C528.358 168.824 530.528 170.399 532.957 171.743C535.399 173.087 537.957 173.957 540.635 174.36C543.306 174.757 545.984 174.59 548.655 173.83C551.319 173.078 553.777 171.516 556.025 169.148C558.259 166.78 559.694 164.238 560.304 161.529C560.922 158.813 560.96 156.125 560.425 153.457C559.884 150.79 558.918 148.247 557.51 145.816C556.101 143.393 554.451 141.286 552.571 139.489C550.69 137.699 548.505 136.147 546.014 134.851C543.537 133.556 540.948 132.716 538.27 132.311C536.931 132.113 535.592 132.057 534.255 132.146ZM535.764 139.49C536.638 139.418 537.524 139.433 538.415 139.545C540.184 139.768 541.904 140.295 543.597 141.124C545.29 141.953 546.78 142.98 548.085 144.227C549.389 145.467 550.487 146.905 551.396 148.555C552.305 150.206 552.921 151.921 553.233 153.69C553.546 155.452 553.48 157.213 553.057 158.968C552.634 160.716 551.75 162.319 550.384 163.76C549.017 165.202 547.469 166.182 545.742 166.698C544.021 167.206 542.275 167.351 540.505 167.128C538.729 166.905 536.999 166.377 535.313 165.549C533.62 164.72 532.129 163.686 530.825 162.446C529.527 161.207 528.422 159.769 527.514 158.118C526.605 156.461 525.988 154.752 525.676 152.983C525.364 151.222 525.422 149.46 525.852 147.705C526.269 145.95 527.166 144.355 528.526 142.913C529.893 141.471 531.436 140.491 533.157 139.976C534.021 139.718 534.89 139.561 535.764 139.49ZM151.335 143.145C150.575 143.13 149.806 143.222 149.036 143.41C147.496 143.786 145.97 144.512 144.416 145.585C142.876 146.671 141.325 148.043 139.785 149.715L123.317 167.514L124.252 168.387C125.182 167.384 125.967 167.161 126.584 167.746L150.125 189.687C150.75 190.265 150.604 191.063 149.674 192.072L150.598 192.934L158.937 183.934L158.002 183.051C157.454 183.643 156.994 183.99 156.627 184.067C156.266 184.144 155.927 184.05 155.615 183.758L146.385 175.145L153.272 167.703L166.66 169.513C167.298 169.59 167.798 169.664 168.145 169.734C168.506 169.804 168.771 169.921 168.937 170.088C169.117 170.248 169.14 170.496 169.036 170.816C168.932 171.137 168.733 171.449 168.442 171.755L169.377 172.627L178.387 162.899L177.44 162.027C177.184 162.305 176.88 162.575 176.505 162.833C176.131 163.104 175.655 163.197 175.086 163.12L158.827 160.856C160.527 158.182 161.403 155.607 161.446 153.127C161.487 150.648 160.373 148.339 158.09 146.214C156.599 144.828 155.101 143.912 153.602 143.487C152.849 143.271 152.096 143.159 151.335 143.145ZM616.993 144.028C611.651 147.51 606.033 151.268 600.24 155.203V158.858C603.827 163.322 607.27 167.929 610.503 172.672C616.04 168.305 621.2 164.093 626.113 159.984V156.33C623.234 152.144 620.074 148.039 616.993 144.028ZM84.9358 144.171C81.7719 148.204 78.7194 152.32 75.8052 156.505C75.4792 157.55 75.8052 159.06 75.8052 160.16C80.7245 164.269 85.9975 168.458 91.4372 172.748C94.7676 168.131 98.1025 163.476 101.69 158.935V155.28C95.8963 151.338 90.2781 147.604 84.9358 144.171ZM149.938 151.029C150.302 151.045 150.654 151.112 150.984 151.227C151.643 151.45 152.255 151.828 152.81 152.343C153.358 152.859 153.771 153.436 154.042 154.076C154.32 154.724 154.399 155.444 154.295 156.252C154.191 157.059 153.855 157.973 153.272 158.99C152.696 159.993 151.827 161.122 150.676 162.369H150.664L142.348 171.38L134.658 164.225L142.997 155.214C144.149 153.967 145.208 153.019 146.165 152.365C147.13 151.704 148.007 151.295 148.805 151.128C149.201 151.048 149.575 151.013 149.938 151.029ZM70.258 164.484C67.4479 168.746 64.7423 173.132 62.0297 177.492C61.7312 178.551 62.0297 180.065 62.0297 181.158C67.2751 184.814 72.8212 188.646 78.6079 192.609C81.522 187.622 84.6474 182.737 87.8043 178.022V174.367C86.6178 173.671 85.4306 172.989 84.2511 172.313C82.8842 171.533 81.5558 170.798 80.2029 170.039C79.3217 169.545 78.4369 169.046 77.5627 168.559C75.0845 167.168 72.6404 165.813 70.258 164.484ZM631.722 164.561C626.102 167.619 620.241 170.955 614.198 174.367V178.022C617.431 182.807 620.488 187.615 623.395 192.609C629.188 188.646 634.707 184.915 639.973 181.224V177.58C637.364 173.137 634.629 168.851 631.722 164.561ZM578.083 166.671L577.038 167.41C577.801 168.49 577.831 169.279 577.137 169.773L560.064 181.821C557.781 183.43 556.129 185.083 555.103 186.79C554.083 188.496 553.589 190.316 553.618 192.267C553.652 194.202 554.207 196.267 555.268 198.439C556.322 200.612 557.757 202.988 559.547 205.55C561.337 208.106 563.078 210.247 564.75 211.988C566.429 213.722 568.176 214.942 569.986 215.632C571.797 216.321 573.673 216.464 575.63 216.074C577.573 215.691 579.684 214.69 581.966 213.081L599.039 201.034C599.733 200.547 600.407 200.759 601.052 201.685L602.097 200.957L595.585 191.659L594.54 192.399C595.359 193.555 595.417 194.385 594.716 194.873L577.357 207.129C574.929 208.85 572.7 209.237 570.702 208.311C568.69 207.384 566.636 205.404 564.519 202.381C562.397 199.359 561.241 196.738 561.054 194.53C560.86 192.323 561.98 190.358 564.409 188.645L581.779 176.388C582.473 175.9 583.119 176.091 583.715 176.94L584.761 176.2L578.083 166.671ZM109.941 182.615L109.27 183.709C109.714 183.98 109.958 184.366 110.007 184.868C110.063 185.376 109.827 186.05 109.314 186.9L92.4942 214.538L93.5833 215.212C93.7499 214.926 93.9904 214.727 94.3093 214.616C94.6288 214.504 94.9719 214.559 95.3324 214.781L122.746 231.599C123.107 231.822 123.313 232.092 123.362 232.427C123.404 232.761 123.337 233.069 123.164 233.354L124.253 234.028L141.447 205.782C141.815 205.176 142.168 204.703 142.481 204.368C142.793 204.035 143.246 204.055 143.856 204.424L144.516 203.331L136.243 198.251L135.583 199.344C136.062 199.643 136.326 200.068 136.375 200.625C136.424 201.182 136.27 201.757 135.902 202.37L123.568 222.604L115.232 217.493L122.469 205.621C122.955 204.813 123.475 204.261 124.009 203.976C124.544 203.697 125.265 203.835 126.187 204.406L126.859 203.313L117.431 197.538L116.771 198.631C117.701 199.202 118.14 199.764 118.091 200.343C118.043 200.927 117.77 201.622 117.277 202.429L110.038 214.311L102.547 209.717L114.504 190.084C115.025 189.235 115.493 188.703 115.923 188.494C116.354 188.292 116.799 188.322 117.243 188.594L117.908 187.508L109.941 182.615ZM57.1932 185.796C54.7301 190.26 52.2816 194.815 49.999 199.433C49.7421 200.498 49.999 201.987 49.999 203.087C55.5081 206.318 61.3088 209.736 67.3798 213.246C69.9054 208.079 72.6333 203.017 75.4431 198.03V194.375C69.1292 191.318 63.0559 188.428 57.1932 185.796ZM644.87 185.971C639.083 188.673 632.945 191.492 626.631 194.473V198.128C629.441 203.094 632.162 208.175 634.694 213.322C640.765 209.832 646.656 206.494 652.075 203.185V199.53C649.792 194.969 647.333 190.427 644.87 185.971ZM234.02 196.03V209.789L291.864 228.119C292.051 228.119 292.821 228.036 293.14 227.666V214.879L234.02 196.03ZM471.952 196.03L412.294 215.431V228.649C419.379 226.42 426.273 224.587 432.712 222.31C435.876 221.203 438.9 219.964 441.765 219.086C445.089 218.013 448.618 217.081 451.699 216.049C457.076 214.295 462.731 211.974 468.123 210.539C469.815 210.121 472 209.654 471.951 207.878L471.952 196.03ZM294.675 201.198V226.33H410.436V201.198H294.675ZM45.7765 208.09C43.5703 212.726 41.5613 217.463 39.528 222.252C39.3126 223.325 39.528 224.806 39.528 225.907C45.2454 228.79 51.2922 231.672 57.6128 234.729C59.7915 229.415 62.098 224.073 64.5541 218.906V215.251C58.06 212.724 51.7434 210.266 45.7765 208.09ZM656.377 208.443C650.403 210.623 644.081 212.974 637.489 215.432V219.087C639.945 224.325 642.263 229.569 644.441 234.911C650.762 231.846 656.83 228.891 662.526 226.077V222.433C660.59 217.718 658.555 212.977 656.377 208.443ZM233.975 217.917V219.066C233.94 219.769 235.194 222.777 236.054 224.024C237.345 225.897 240.329 228.492 242.05 229.147C257.467 234.816 288.535 245.202 289.242 245.125H290.86C290.013 243.078 288.734 241.478 288.428 239.737C288.061 237.926 288.828 235.394 287.031 234.746C269.88 228.645 236.029 217.882 235.328 217.917L233.975 217.917ZM471.04 218.514L417.598 235.342V239.538C417.584 241.684 415.123 244.203 414.54 246.23C427.3 242.044 439.841 238.171 452.24 234.271C455.917 233.101 460.016 231.632 463.603 230.274C468.204 228.533 470.763 223.354 471.04 218.514ZM604.323 219.805C602.748 219.757 601.299 220.023 599.967 220.623C597.983 221.514 596.543 222.604 595.655 223.913C594.76 225.216 594.23 226.651 594.07 228.197C593.904 229.751 594.025 231.387 594.422 233.1C594.825 234.813 595.325 236.525 595.93 238.224C596.526 239.923 597.139 241.584 597.778 243.193C598.416 244.795 598.901 246.264 599.241 247.588C599.567 248.918 599.665 250.076 599.527 251.044C599.394 252.012 598.832 252.718 597.833 253.164C596.848 253.602 595.867 253.549 594.896 252.998C593.925 252.448 593.025 251.687 592.178 250.712C591.332 249.744 590.599 248.698 589.967 247.576C589.336 246.462 588.863 245.525 588.537 244.794C588.093 243.797 587.712 242.63 587.393 241.271C587.074 239.907 586.858 238.564 586.733 237.241C586.608 235.924 586.597 234.716 586.699 233.608C586.804 232.494 587.051 231.675 587.425 231.146C587.648 230.839 587.961 230.591 588.349 230.417L588.383 229.622L578.978 229.556L578.868 230.693C579.326 230.798 579.623 231.012 579.748 231.311C579.962 231.785 580.054 232.427 580.012 233.222C579.984 234.015 580.007 235.047 580.089 236.335C580.165 237.617 580.445 239.161 580.903 240.951C581.361 242.741 582.139 244.864 583.236 247.323C584.026 249.099 585.016 250.959 586.217 252.888C587.403 254.817 588.799 256.484 590.408 257.89C592.017 259.297 593.793 260.277 595.743 260.827C597.693 261.385 599.795 261.156 602.036 260.154C603.972 259.283 605.364 258.203 606.238 256.907C607.105 255.605 607.633 254.175 607.8 252.623C607.96 251.077 607.851 249.447 607.47 247.72C607.089 245.993 606.6 244.28 605.996 242.574C605.393 240.875 604.788 239.222 604.17 237.605C603.559 235.99 603.108 234.507 602.817 233.156C602.526 231.811 602.464 230.644 602.652 229.655C602.832 228.666 603.437 227.936 604.478 227.469C605.206 227.141 605.936 227.137 606.678 227.458C607.414 227.778 608.113 228.281 608.779 228.97C609.445 229.653 610.083 230.475 610.693 231.422C611.297 232.369 611.799 233.324 612.222 234.271C612.778 235.524 613.223 236.832 613.542 238.19C613.861 239.556 614.072 240.869 614.169 242.121C614.259 243.375 614.226 244.51 614.092 245.534C613.946 246.558 613.698 247.358 613.344 247.93C613.066 248.368 612.642 248.756 612.079 249.111L612.113 249.873L622.178 250.734L622.343 249.718C621.976 249.579 621.657 249.209 621.386 248.603C621.136 248.039 620.997 247.265 620.969 246.262C620.94 245.267 620.842 244.07 620.682 242.663C620.522 241.255 620.238 239.62 619.835 237.782C619.426 235.943 618.721 233.878 617.701 231.587C616.508 228.905 615.147 226.708 613.642 224.995C612.136 223.288 610.601 222.009 609.033 221.153C607.465 220.302 605.899 219.855 604.323 219.805ZM85.5351 227.822L81.1568 239.449L82.3559 239.902C82.8208 238.662 83.4045 238.169 84.105 238.434C84.4589 238.573 85.0087 239.049 85.7441 239.858C86.4657 240.666 87.3087 241.551 88.2523 242.519L103.07 257.614L81.663 259.237C80.3586 259.348 79.2689 259.456 78.3739 259.546C77.4788 259.636 76.7915 259.583 76.3057 259.402C75.8617 259.235 75.618 258.978 75.5687 258.629C75.527 258.288 75.5602 257.961 75.6787 257.647L74.4906 257.194L70.0133 269.086L71.2014 269.539C71.7079 268.871 72.154 268.384 72.5215 268.07C72.8962 267.757 73.3607 267.583 73.9296 267.54L104.313 265.387C105.513 265.283 106.516 265.193 107.327 265.122C108.139 265.045 108.657 265.049 108.878 265.134C109.322 265.3 109.543 265.61 109.571 266.083L110.76 266.536L114.588 256.366L113.4 255.913C113.198 256.046 113.012 256.137 112.839 256.201C112.665 256.255 112.466 256.251 112.245 256.167C112.023 256.084 111.696 255.806 111.266 255.339C110.835 254.873 110.263 254.271 109.527 253.539L88.1922 232.01C87.8661 231.682 87.4569 231.194 86.9712 230.553C86.4783 229.912 86.3962 229.151 86.7291 228.267L85.541 227.814L85.5351 227.822ZM327.376 227.922L293.175 228.076L327.376 239.725V227.922ZM378.584 228.209V239.737L411.927 228.364L378.584 228.209ZM240.524 230.726C240.399 234.132 242.014 236.56 243.45 238.169C246.774 241.971 253.028 242.619 257.08 244.109C259.689 245.022 262.126 246.005 264.451 246.771C273.165 249.703 290.482 255.427 291.182 255.427C291.89 255.427 292.04 254.908 292.04 254.908C290.028 252.944 288.842 250.878 288.432 249.387C288.106 248.357 288.353 246.589 287.035 246.13C275.413 242.118 263.757 238.504 252.163 234.569C248.77 233.44 242.545 230.684 241.845 230.726L240.524 230.726ZM665.928 231.08C659.781 232.835 653.399 234.838 646.655 236.844V240.498C648.764 245.84 650.587 251.324 652.419 256.764C658.941 254.235 665.159 251.703 671.021 249.244V245.6C669.474 240.711 667.781 235.893 665.928 231.08ZM35.9526 231.245C35.113 233.544 34.2811 235.856 33.4554 238.169C33.2337 238.823 33.0132 239.476 32.7844 240.123C32.2641 241.614 31.7369 243.105 31.2443 244.595C31.1126 244.985 30.9839 245.369 30.8593 245.766C30.6861 246.845 30.8593 248.32 30.8593 249.421C36.7501 251.872 43.0443 254.417 49.5383 256.951C50.2461 254.736 50.9972 252.539 51.7604 250.359C52.0308 249.586 52.286 248.817 52.5635 248.051C53.4516 245.579 54.3713 243.113 55.3357 240.675V237.02C48.5842 234.94 42.0856 232.995 35.9453 231.237L35.9526 231.245ZM464.454 232.116C457.447 234.678 450.623 236.879 443.872 239.017C435.359 241.678 426.583 244.627 418.043 247.343C417.342 249.085 416.941 251.105 415.832 252.721C414.978 253.953 413.649 254.739 413.115 256.188C427.04 252.002 440.744 247.695 454.246 243.357C454.912 243.148 455.282 242.671 455.962 242.386C457.295 241.829 458.85 241.152 460.12 240.497C461.993 239.543 464.916 234.993 464.916 232.967C464.916 232.257 464.454 232.116 464.454 232.116ZM415.7 236.091C402.864 241.078 382.159 241.232 382.159 258.838C382.159 259.549 382.731 261.957 382.731 262.68C382.731 264.784 374.798 266.809 373.611 266.865H368.067C368.851 270.578 369.73 274.043 371.235 277.267C383.135 278.723 398.958 266.506 400.651 251.484C400.727 250.752 401.424 250.587 402.103 250.357C408.334 248.198 416.151 246.69 416.151 238.222C416.151 237.511 416.137 236.801 415.7 236.091ZM290.262 236.135V239.812C290.554 242.41 293.636 246.573 296.28 247.332C297.903 247.813 299.912 248.704 301.626 249.066C302.424 249.233 303.761 248.943 303.837 250.037C304.434 259.607 314.696 273.983 325.145 275.975C326.332 276.185 328.211 277.046 328.919 277.025H333.594L336.498 266.59H331.185C330.769 266.535 322.098 264.579 322.098 262.824C322.098 262.113 322.659 258.986 322.659 258.275C322.659 241.992 305.152 241.735 290.262 236.135ZM331.24 237.306V241.126H374.439V237.306H331.24ZM332.065 242.727L339.38 265.375L331.206 294.35V295.741H373.614V294.074L366.023 267.661L372.777 244.096V242.727L332.065 242.727ZM249.298 243.533V245.234C249.256 246.864 253.257 252.364 254.589 253.019C261.423 256.32 269.015 257.859 275.523 260.053C280.914 261.843 291.362 265.673 292.09 265.673L293.443 265.518C291.445 262.955 288.929 259.294 288.471 256.453C280.409 253.201 271.651 250.567 264.06 248.226C259.502 246.841 251.057 243.477 250.343 243.533H249.298ZM189.871 244.903C189.17 244.903 187.822 245.497 186.67 245.267C185.365 244.982 183.216 256.361 183.216 258.562C183.216 259.273 183.282 259.18 183.282 259.18C183.517 259.794 183.447 263.227 183.579 263.763C183.655 263.972 183.749 264.724 183.271 265.817C186.067 265.663 188.023 265.386 188.738 265.386C189.453 265.386 189.533 265.76 189.651 266.303C191.011 272.968 194.312 280.018 196.636 286.675H198.77C199.478 286.71 204.567 285.566 207.571 284.577C204.524 277.002 202.04 270.138 199.483 262.851C197.889 263.376 197.095 263.523 197.095 262.099C197.095 261.18 197.407 258.256 200.065 258.256C200.786 258.256 202.746 259.217 203.926 259.294C206.993 259.468 210.085 259.959 212.693 260.321C211.084 261.449 209.397 262.608 207.864 263.987L213.837 267.035V260.498H216.059C218.196 260.532 219.886 263.839 220.823 264.926C225.638 266.207 230.489 267.362 235.255 268.26C235.457 268.455 235.637 268.513 235.651 268.68C235.165 269.161 234.755 269.506 234.463 269.541C227.976 270.613 221.142 271.358 214.585 272.103C214.28 272.215 213.54 272.769 213.54 273.097C214.4 276.273 215.837 279.398 217.093 282.693C226.071 280.722 234.929 278.931 243.352 276.94C244.531 276.675 245.747 275.894 246.85 275.184C248.411 274.188 251.802 266.821 251.767 265.909V264.915C243.938 262.546 236.014 261.036 228.951 257.893C227.154 257.113 225.566 252.296 223.234 251.798C218.193 250.668 213.017 250.125 208.196 249.514C206.517 249.317 204.27 249.927 202.946 248.842C199.832 246.235 193.546 244.895 189.868 244.895L189.871 244.903ZM455.238 245.245C442.721 249.166 430.244 253.159 417.748 256.983C417.325 258.174 417.02 259.333 416.659 260.141C415.993 261.75 412.676 264.293 411.94 265.784L413.304 265.96C414.026 265.96 422.503 263.007 426.736 261.753C432.911 259.894 439.38 257.829 445.701 256.464C447.665 256.032 456.422 250.693 456.393 246.57V245.245L455.238 245.245ZM515.656 246.603C514.941 246.603 510.065 246.554 507.637 247.376C505.791 247.968 504.45 250.528 502.521 251.064C499.288 251.963 495.79 251.939 492.39 252.301C488.164 252.761 486.321 252.875 485.614 252.875C484.92 252.875 483.067 252.967 482.06 253.538C481.09 254.116 480.16 254.911 479.508 255.823C478.766 256.855 478.571 258.367 477.572 258.75C470.343 261.752 462.575 263.414 455.054 265.761V267.694C455.012 269.184 458.364 275.968 459.751 276.35C469.236 279.067 479.058 280.736 488.584 282.699C489.354 280.658 491.851 276.091 491.851 274.197C491.851 273.487 491.772 273.431 491.411 273.104C484.514 272.205 477.723 271.076 470.972 269.857C470.743 269.704 470.302 269.646 470.246 269.548C475.179 268.497 480.301 267.361 485.206 266.059C487.406 262.563 488.66 261.41 491.422 261.41C492.129 261.41 491.664 261.306 491.873 261.487C491.852 266.809 491.914 267.574 492.379 267.936C494.501 266.773 497.081 265.934 498.066 263.872C496.207 262.855 494.571 261.746 493.523 261.189C496.729 260.827 506.151 259.698 506.845 259.698C508.753 259.698 508.561 261.329 508.561 262.812C508.561 265.132 508.786 264.053 506.108 264.38C503.762 270.976 501.215 277.806 498.682 285.14L508.55 287.282C508.855 287.282 509.65 287.155 509.837 286.862C513.688 280.462 514.795 273.755 516.932 267.041C519.021 267.39 520.757 267.649 521.465 267.649C522.173 267.649 522.372 267.578 522.719 267.174C522.455 264.785 523.024 264.165 522.455 259.08C521.851 253.711 523.024 246.603 515.656 246.603ZM290.121 247.222V249.209C290.044 250.247 293.783 255.173 293.839 255.25C296.004 257.2 298.736 257.519 300.428 258.319C301.275 258.709 302.806 259.412 303.541 259.412C304.236 259.412 304.138 259.323 304.499 258.904C303.645 256.189 303.082 253.618 302.166 251.021C298.086 249.76 294.117 248.615 290.121 247.222ZM415.485 248.083C410.982 249.476 406.74 250.623 402.438 252.378C401.71 254.698 401.291 257.204 400.326 259.523L401.459 259.699C406.011 258.654 415.86 255.139 415.485 248.083ZM348.511 252.687H357.169C356.079 257.194 355.237 260.911 354.286 264.47H351.371L348.511 252.687ZM674.009 255.017C667.688 256.347 661.122 257.754 654.274 259.335V262.99C655.953 268.478 657.443 273.993 658.74 279.586C665.511 277.483 671.905 275.476 677.969 273.568V269.913C676.741 264.926 675.438 259.935 674.009 255.017ZM27.8684 255.371C26.4668 260.364 25.1374 265.35 23.9302 270.344C23.7985 271.431 23.9302 272.898 23.9302 273.999C29.9736 275.928 36.4694 277.828 43.1375 279.862C44.4419 274.249 45.9415 268.728 47.5928 263.232V259.578C40.7799 258.096 34.2177 256.694 27.8971 255.366L27.8684 255.371ZM259.509 256.895V258.021C259.447 259.553 263.593 265.07 264.481 265.529C270.913 269.047 278.217 270.07 284.58 271.978C288.555 273.204 296.171 275.92 296.878 275.92L298.54 275.743C296.784 273.716 294.667 271.841 293.182 269.758C292.44 268.748 292.287 267.544 291.829 266.667C281.242 263.762 270.021 260.244 259.509 256.895ZM290.729 256.906C291.09 260.617 295.57 266.719 299.629 267.826C301.287 268.286 303.331 269.071 304.997 269.516C307.238 270.178 311.205 271.934 311.906 271.934L313.285 271.764C310.295 267.479 307.169 265.246 305.761 261.543C300.939 259.988 296.107 258.569 290.756 256.901L290.729 256.906ZM415.023 258.43C415.023 257.685 405.13 261.101 399.017 262.383C396.935 265.517 394.422 268.611 391.834 271.78C395.282 271.076 398.473 269.361 401.734 269.152C404.288 268.978 415.023 263.862 415.023 258.43ZM445.198 258.573C434.797 261.693 424.614 264.546 414.297 267.241C413.374 268.961 412.65 270.71 411.602 272.034C410.423 273.524 408.579 274.882 407.719 276.351C417.377 273.907 426.805 271.515 435.803 268.986C436.678 268.729 437.595 268.188 438.399 267.805C439.815 267.094 441.475 266.009 442.613 264.923C443.876 263.718 445.829 259.819 445.198 258.573ZM631.177 261.51L621.563 263.929L621.871 265.165C622.509 265.005 622.996 265.085 623.323 265.419C623.649 265.754 623.864 266.135 623.961 266.546L626.799 277.919L599.485 284.787C599.068 284.891 598.732 284.828 598.462 284.632C598.198 284.43 598.01 284.168 597.934 283.848L596.702 284.169L599.342 294.769L600.585 294.46C600.335 293.45 600.624 292.84 601.443 292.638L628.769 285.77L631.607 297.143C631.711 297.555 631.695 297.978 631.562 298.424C631.423 298.876 631.034 299.187 630.396 299.341L630.704 300.588L640.318 298.17L640.01 296.933C639.372 297.093 638.884 296.996 638.558 296.668C638.225 296.334 638.014 295.964 637.909 295.553L630.275 264.955C630.178 264.538 630.198 264.117 630.331 263.663C630.463 263.218 630.841 262.907 631.486 262.747L631.177 261.51ZM294.978 267.727C295.575 272.721 300.826 277.046 306.21 277.046C308.083 277.046 314.059 274.885 314.691 273.833L294.978 267.727ZM351.103 267.727H354.007C354.666 270.158 355.231 272.433 355.745 275.225H349.332C349.852 272.704 350.43 270.158 351.103 267.727ZM409.606 268.235L390.685 273.855C393.321 276.509 397.116 277.323 399.871 277.323C404.582 277.323 408.677 275.029 411.036 268.379L409.606 268.235ZM316.904 274.231C311.63 278.841 306.139 278.839 300.81 278.261L299.721 278.901C299.762 281.896 304.983 286.145 307.751 286.145C310.506 286.145 314.559 283.447 315.628 279.387C315.919 278.259 316.98 276.292 316.904 275.589V274.231ZM389.189 275.059C388.752 275.421 388.683 275.21 388.683 275.92C388.683 276.623 389.921 281.271 391.059 283.716C391.607 284.921 393.158 286.3 394.282 286.62C395.101 286.815 396.332 286.995 397.032 286.995C401.001 286.995 405.224 282.113 405.877 277.963C404.024 278.554 401.462 279.321 399.012 279.321C395.973 279.321 392.256 276.549 389.189 275.059ZM386.813 275.357C384.648 275.914 382.37 277.053 380.212 277.764C382.453 284.644 382.066 291.556 389.816 291.556C391.419 291.556 396.197 289.375 395.954 287.084C395.198 287.007 394.631 287.57 393.93 287.57C388.858 287.57 387.839 276.965 386.813 275.357ZM318.543 275.379C316.878 279.794 314.759 287.495 308.786 286.576C311.228 289.334 313.331 291.269 316.134 291.269C316.829 291.269 318.01 290.956 318.807 290.573C319.661 290.134 321.025 288.817 321.393 287.967C322.697 284.875 324.924 279.184 324.924 278.46C324.924 277.081 319.418 275.421 318.543 275.379ZM349.081 276.273H356.001C356.077 276.754 356.366 277.041 356.276 278.106H348.795C348.732 277.041 349.005 276.754 349.081 276.273ZM326.827 277.897C323.656 282.026 324.611 291.916 316.992 291.456C319.303 293.483 321.999 294.393 323.768 294.393C325.066 294.393 327.198 293.592 327.85 292.77C328.495 292.025 329.336 291.106 329.621 290.208C330.711 286.858 332.855 280.328 332.855 279.597C332.855 278.893 332.786 278.836 332.426 278.481H328.653C327.924 278.46 327.576 278.203 326.827 277.897ZM378.629 278.228C376.187 278.457 373.902 278.759 371.445 279.1V280.226C373.478 284.782 373.534 295.266 381.742 295.266C383.893 295.266 386.239 293.933 387.814 291.733L386.45 291.545C379.942 291.545 381.828 284.997 378.629 278.228ZM348.234 279.111H356.595C356.671 279.598 356.942 279.893 356.859 280.944H347.948C347.872 279.893 348.15 279.598 348.234 279.111ZM21.8352 279.431C20.7527 284.404 19.8012 289.461 18.92 294.559C18.8299 295.646 18.92 297.121 18.92 298.214C25.1437 299.697 31.7301 301.276 38.5779 302.752C39.4521 297.062 40.5071 291.473 41.7351 285.88V282.225C34.8868 281.173 28.1282 280.212 21.8352 279.431ZM680.141 279.431C673.841 280.212 667.156 281.173 660.23 282.225V285.88C661.459 291.473 662.513 297.062 663.387 302.753C670.235 301.269 676.801 299.698 683.045 298.214V294.559C682.164 289.475 681.217 284.397 680.141 279.431ZM235.571 280.489L199.986 288.132C199.562 288.09 196.036 288.266 196.036 289.833C196.036 290.543 197.464 296.726 198.138 300.201C198.366 300.529 198.674 301.138 199.084 301.493L237.641 292.571C237.71 290.412 237.424 289.341 237.542 288.386C237.861 288.672 238.679 288.983 239.401 288.983C240.546 288.983 242.239 287.436 242.239 285.869C242.239 284.72 241.333 283.009 239.258 283.009C238.536 283.009 237.25 283.622 236.64 284.157C236.244 283.162 235.994 281.811 235.571 280.489ZM471.081 280.732C468.874 281.149 469.754 284.257 468.672 285.866C467.971 284.828 467.105 284.143 465.987 284.143C464.691 284.143 462.995 285.789 462.995 287.279C462.995 288.77 464.628 290.404 466.12 290.404C466.847 290.404 467.457 290.028 467.957 289.554V289.897C467.839 290.607 467.539 291.682 467.539 292.392C467.539 293.102 467.814 292.945 467.891 293.419L505.282 301.778C507.405 300.42 507.152 296.106 507.845 293.905C508.248 292.47 508.923 290.408 508.923 289.698C508.923 288.973 508.627 289.263 508.571 288.803L471.081 280.732ZM347.462 281.958H357.506C357.596 282.432 357.878 283.003 357.781 283.769H347.177C347.1 283.296 347.379 282.724 347.462 281.958ZM248.181 283.846C246.315 283.846 245.354 285.457 245.354 286.983C245.354 287.77 246.572 290.118 248.049 290.118C248.723 290.118 251.306 289.009 251.306 286.85C251.306 285.492 250.187 283.846 248.181 283.846ZM66.9783 283.979L64.4921 295.507L65.7462 295.783C66.0028 294.579 66.5486 294.056 67.3743 294.237L98.7919 301.029C99.6241 301.21 99.907 301.899 99.65 303.104L100.893 303.369L103.368 291.841L102.114 291.565C101.857 292.777 101.319 293.292 100.486 293.111L69.079 286.32C68.2468 286.146 67.964 285.449 68.221 284.244L66.9783 283.979ZM456.634 284.708C455.149 284.708 453.367 285.74 453.367 287.844C453.367 289.09 454.971 290.969 456.491 290.969C457.65 290.969 459.34 289.409 459.34 287.689C459.34 287.139 458.826 284.708 456.634 284.708ZM346.64 284.774H358.356V286.618H346.64V284.774ZM256.129 287.844C254.415 287.844 253.29 289.587 253.29 291.112C253.29 292.456 254.248 294.105 256.129 294.105C256.878 294.105 259.253 293.181 259.253 291.245C259.253 290.116 257.822 287.844 256.129 287.844ZM405.757 288.407C396.695 288.407 390.158 296.367 390.158 304.341C390.158 309.808 393.69 316.808 400.961 319.336H306.828C312.351 315.694 315.354 310.515 315.354 305.048C315.354 297.31 309.42 289.257 300.338 289.257C299.63 289.257 297.283 289.261 296.257 289.644C282.852 294.902 257.256 306.902 256.556 306.902C255.848 306.902 253.596 304.71 251.924 303.623C247.56 300.775 242.168 300.04 237.81 294.977C233.696 295.527 229.397 296.387 225.247 297.682C227.141 301.457 229.789 305.043 233.3 307.3C235.964 309.062 238.893 310.869 241.55 312.192C255.33 319.066 258.117 327.984 258.117 337.909C258.117 342.324 257.561 344.893 254.168 349.978L258.964 350.431L272.297 349.282C278.951 349.373 273.103 343.872 279.084 343.872C280.715 343.872 281.923 345.483 281.923 347.008C281.923 351.312 275.763 351.414 274.167 351.944C270.205 353.288 266.194 354.349 262.308 355.345C258.61 356.299 254.93 357.835 251.439 358.712C249.004 353.726 246.454 348.599 243.596 343.319C243.374 343.877 243.662 344.17 243.662 347.261C243.086 349.803 242.547 352.369 241.77 354.604C240.909 356.972 239.487 359.822 237.523 361.793C228.33 370.701 211.166 373.743 209.813 387.102C209.64 389.052 209.352 391.078 209.109 392.91C209.428 393.3 209.354 393.351 209.076 395.615C208.444 405.491 207.722 415.786 202.497 425.097C200.547 428.573 197.983 432.062 195.27 434.903C191.509 438.838 183.862 444.888 183.862 445.591C183.862 446.58 189.39 465.938 191.034 469.741C191.395 470.583 192.502 471.591 193.036 472.015C195.166 473.694 197.745 473.309 197.745 476.311C197.745 477.021 197.167 477.884 197.327 478.685C219.432 465.592 240.805 452.647 262.228 439.595C263.157 439.038 264.028 438.428 264.285 437.321C263.203 437.203 262.397 437.273 261.898 437.1C251.934 433.318 242.052 429.243 232.449 425.461C232.186 425.287 231.957 425.045 231.756 424.898C232.596 422.433 234.869 416.634 234.869 413.437C234.869 406.904 229.542 398.514 220.293 395.394C219.433 395.108 220.139 393.381 220.139 392.678C220.139 391.939 220.373 389.409 220.491 387.996C220.491 387.577 224.801 381.724 226.806 381.724C229.359 381.724 236.537 390.57 237.355 392.081C238.785 394.79 239.943 397.665 240.435 400.263C240.748 401.928 240.82 404.632 240.82 405.343C240.82 410.211 240.03 415.864 238.004 421.365C244.381 424.924 250.474 428.421 256.573 431.082C257.607 431.521 259.433 430.928 260.127 430.928H264.318C265.511 430.928 266.617 432.669 266.617 433.644C266.617 434.34 265.841 436.136 264.967 437.354C269.858 435.168 277.097 430.066 277.805 430.066C278.832 430.066 279.081 431.753 279.081 433.07C279.081 433.933 279.031 435.205 277.783 435.985C257.169 448.688 236.402 461.378 215.816 473.705C213.186 475.279 210.021 477.043 207.224 478.84C205.24 480.122 199.583 484.416 196.884 484.416C196.176 484.416 194.647 483.94 193.87 483.654C193.294 483.445 192.629 482.622 192.352 481.954C193.378 481.229 194.863 480.329 195.751 478.95C193.905 477.906 191.652 476.848 190.702 475.163C186.254 467.46 183.057 459.182 179.47 451.576C178.554 449.55 176.489 446.151 176.489 445.448C176.489 444.738 177.206 444.507 177.49 444.333C184.498 439.751 191.802 429.571 191.802 422.955C191.802 419.257 192.823 418.028 191.505 407.839C190.693 401.494 189.014 395.299 187.126 388.99C186.939 388.676 186.367 388.548 186.367 388.548C174.558 403.264 175.285 424.104 155.378 424.104C148.377 424.104 138.503 418.659 138.503 408.888C138.503 403.4 142.793 396.521 149.988 396.521C153.95 396.521 160.593 398.761 160.593 406.039C160.593 406.749 160.686 407.457 160.395 408.181C159.479 402.575 155.351 398.795 150.549 398.795C145.505 398.795 140.77 404.018 140.77 409.318C140.77 413.365 145.001 418.718 149.747 420.46C151.502 421.073 154.238 422.105 154.939 422.105C159.248 422.105 166.483 419.61 169.251 415.613C178.638 402.038 178.204 386.981 189.25 373.365C198.18 362.34 208.941 350.878 214.331 340.327C217.891 333.292 219.557 327.032 219.557 320.13C219.557 313.437 218.117 306.861 214.023 299.812C210.145 300.648 206.46 301.212 202.88 302.209C204.559 309.278 207.104 314.341 207.104 319.71C207.104 323.228 206.164 329.553 204.464 332.652C193.883 351.923 172.35 371.537 169.02 390.765C168.811 392.081 168.046 393.493 167.436 394.531C164.161 387.17 156.871 383.422 150.55 383.422C136.028 383.422 125.765 396.41 125.765 409.316C125.765 424.471 139.955 436.337 156.919 436.337C162.595 436.337 159.421 436.892 167.491 434.504C168.164 434.329 168.331 433.644 168.657 433.532C176.921 429.952 180.621 420.159 182.209 414.275C182.39 414.024 182.429 413.592 182.616 413.502V414.705C180.59 424.156 173.458 435.908 162.474 440.721C162.148 440.951 162.045 441.604 162.045 441.604L178.205 475.537C176.602 476.505 174.623 477.942 173.09 479.258L196.708 507.747L292.227 449.679V466.618H265.22C275.454 479.76 285.094 492.564 294.537 504.592H410.141C420.423 492.265 431.224 479.202 440.667 467.634L505.287 507.75L527.904 480.101C526.079 478.777 524.419 477.961 523.372 476.987L540.094 443.659C540.094 443.45 539.686 442.649 539.401 442.433C533.136 438.902 527.694 435.5 524.628 429.447C524.301 428.772 523.087 427.662 523.087 426.952C523.087 426.248 520.535 417.702 520.535 416.992C520.535 416.282 520.436 416.351 520.436 416.142C521.345 421.776 524.196 428.466 530.073 432.771C532.508 434.54 535.02 436.421 537.421 437.354C540.918 438.747 545.028 439.75 548.455 439.75C563.865 439.75 576.913 426.383 576.913 410.455C576.913 403.156 571.6 392.204 562.602 388.36C559.653 387.12 553.412 385.986 552.69 385.986C547.736 385.986 537.8 390.004 535.782 395.658C535.747 395.456 535.743 395.182 535.584 395.029C534.085 386.54 530.183 377.48 525.188 369.687C520.317 362.109 513.339 353.38 508.753 346.289C506.415 342.661 501.759 336.47 499.622 331.261C498.498 328.579 498.137 323.69 498.137 322.979C498.137 317.895 501.11 307.762 503.219 303.081L492.362 300.652C492.189 300.652 491.389 300.775 491.174 301.061C487.518 307.002 485.112 316.487 485.112 322.825C485.112 327.63 486.177 333.858 488.897 338.615C490.534 341.429 492.736 344.508 494.408 347.162C498.494 353.855 504.066 361.803 509.325 368.97C514.528 376.081 520.684 384.023 523.57 391.496C527.803 402.493 528.721 423.107 546.012 424.556C546.532 424.606 546.886 424.965 547.607 424.965C552.34 424.965 562.194 418.428 562.194 411.582C562.194 406.289 557.576 401.622 552.282 401.622C547.806 401.622 544.313 403.439 542.557 409.881C542.273 409.387 542.348 409.016 542.348 408.313C542.348 403.591 546.395 398.795 551.841 398.795C557.531 398.795 564.173 403.383 564.173 411.162C564.173 419.729 555.884 427.538 547.738 427.538C534.159 427.538 527.637 416.095 523.8 401.566C522.947 398.224 520.807 395.173 519.246 392.401C518.614 391.266 517.613 390.35 516.496 389.409C513.54 396.694 510.611 408.188 510.611 416.142C510.611 426.63 513.101 438.1 525.924 446.939C523.106 452.441 520.036 458.443 517.233 464.098C516.095 466.369 514.927 468.664 513.845 470.613C512.728 472.605 509.82 479.878 505.782 479.878C505.081 479.878 504.776 479.893 503.868 479.712C505.63 481.244 507.31 482.356 508.642 483.29C508.42 483.373 508.411 483.654 508.411 483.654C507.613 484.169 506.647 484.703 505.947 484.703C505.239 484.703 504.378 484.777 503.67 484.339C480.711 470.897 462.783 458.816 440.373 444.719C435.906 441.913 431.521 439.189 427.448 436.57C426.706 436.069 426.447 434.62 426.447 433.931C426.447 433.736 426.415 431.215 427.734 431.215C428.434 431.215 433.075 434.585 435.94 436.305C435.898 434.321 436.105 431.933 438.415 430.652H441.715C442.41 430.673 442.511 431.215 443.212 431.215H446.237C446.951 431.215 449.014 430.374 450.076 429.956C452.331 429.037 454.692 427.536 456.885 426.533C458.696 425.718 465.279 422.287 465.279 421.542C465.279 420.839 463.945 417.843 463.64 416.087C463.126 413.594 462.43 409.426 462.43 408.722V403.654C462.43 398.326 466.962 389.282 472.693 385.556C474.172 384.56 476.878 382.85 477.6 382.85C480.181 382.85 482.451 390.229 482.451 390.271C482.514 391.413 482.55 392.972 482.55 393.683C482.55 394.846 482.328 397.413 481.835 398.166C472.163 400.185 468.667 407.494 468.667 414.298C468.667 416.346 470.944 424.847 470.944 424.965C470.944 425.843 459.497 430.136 457.512 430.839C450.97 433.27 443.815 437.658 437.238 436.78C438.417 438.236 440.209 439.462 441.374 440.192C460.594 452.193 480.046 464.229 498.841 476.201C500.117 477.022 501.325 478.065 502.449 479.005C502.977 477.744 502.611 475.312 504.484 474.511C505.567 474.038 506.726 473.49 507.586 473.197C509.925 472.459 511.469 469.354 511.899 467.996C514.237 460.997 515.996 453.49 517.96 446.177C516.128 445.195 514.745 443.992 513.219 442.997C509.791 440.698 504.477 435.804 502.416 432.496C500.398 429.244 498.558 424.486 497.642 421.177C496.504 417.201 494.727 409.984 494.727 409.274V403.576C493.575 400.999 493.666 397.238 493.319 394.786C493.319 390.253 493.044 390.122 493.044 389.398C493.044 383.645 488.635 375.029 482.967 371.874C474.62 367.173 460.437 359.07 460.437 348.707C460.437 347.719 461.66 346.133 460.14 344.169L453.243 358.998C449.448 358.121 445.157 356.911 441.286 355.365C440.106 354.885 423.047 353.085 423.047 346.852C423.047 344.449 424.01 343.605 426.446 343.605C432.545 343.605 425.767 349.568 434.377 349.568L450.24 350.794C448.395 349.338 446.555 341.057 446.555 338.195C446.555 336.029 447.931 331.448 448.161 330.167C451.38 311.969 473.275 313.788 481.394 297.957C477.244 296.947 469.792 294.954 469.084 294.954C468.383 294.954 468.534 295.053 468.534 295.053C464.247 299.447 458.731 302.209 454.652 304.152C452.89 305.015 450.244 307.188 449.537 307.188C448.849 307.188 423.859 295.185 410.968 289.355C409.407 288.645 406.464 288.406 405.743 288.406L405.757 288.407ZM447.57 288.407C446.072 288.407 444.314 290.141 444.314 291.819C444.314 292.947 446.015 294.668 447.284 294.668C448.623 294.668 450.265 293.504 450.265 291.687C450.265 290.746 449.472 288.407 447.57 288.407ZM262.926 294.955C261.441 294.955 259.802 296.578 259.802 297.936C259.802 298.911 260.965 301.216 262.783 301.216C264.136 301.216 265.753 299.623 265.753 298.091C265.753 296.559 264.528 294.955 262.926 294.955ZM441.47 295.526C439.597 295.526 438.643 297.16 438.643 298.651C438.643 299.431 439.1 301.787 441.327 301.787C442.68 301.787 444.298 300.963 444.298 298.651C444.298 297.16 443.357 295.526 441.47 295.526ZM330.75 297.028V300.87H373.939V297.028H330.75ZM405.621 301.202C409.173 301.202 434.966 314.603 440.031 317.047C438.886 319.554 438.062 321.791 437.028 324.235C429.126 318.797 420.662 312.786 412.683 307.209C412.183 306.846 411.272 306.623 410.593 306.623C409.871 306.623 405.761 308.313 405.06 308.313C402.617 308.313 401.793 306.193 401.793 305.044C401.793 302.642 403.685 301.202 405.621 301.202ZM300.476 301.489C302.738 301.489 303.447 303.802 303.447 304.757C303.447 306.86 301.185 307.761 300.047 307.761C299.346 307.761 296.223 306.899 295.515 306.899C293.142 306.899 276.735 319.094 267.958 323.948C266.647 321.824 266.062 319.804 265.208 317.61C275.678 311.948 286.44 306.959 297.66 301.875C298.409 301.547 299.755 301.489 300.476 301.489ZM348.67 303.763C347.56 303.763 344.893 304.661 343.214 303.819V305.541C344.574 308.16 346.016 310.751 347.515 313.425H352.74C353.434 313.439 353.82 313.073 354.181 312.641C352.738 309.618 351.596 306.766 350.111 303.896C349.708 303.785 349.371 303.763 348.67 303.763ZM352.806 303.83C353.916 307.555 355.054 310.416 356.281 313.407C358.432 313.434 361.408 314.014 362.123 314.014C362.817 314.014 362.937 313.639 362.937 313.639V312.545C361.819 309.634 360.961 306.805 360.011 304.187C359.011 304.054 358.266 303.777 357.557 303.833L352.806 303.83ZM684.539 304.238C678.225 304.594 671.471 304.941 664.43 305.442V309.108C665.235 314.798 665.861 320.478 666.388 326.245C673.305 325.193 679.968 324.15 686.288 323.12V319.465C685.761 314.381 685.239 309.204 684.539 304.238ZM362.606 304.393V306.082C363.258 308.966 364.133 311.845 365.368 314.408C366.901 314.582 369.093 315.455 369.801 315.391H371.11C370.624 311.972 370.045 308.808 369.108 305.619C366.991 305.193 365.007 304.622 362.606 304.393ZM17.4857 304.592C16.8824 309.662 16.2866 314.724 15.8356 319.885C15.7934 320.985 15.8356 322.447 15.8356 323.54C22.1635 324.494 28.8221 325.545 35.747 326.499C36.1983 320.733 36.9003 315.063 37.7051 309.373V305.718C30.6591 305.198 23.9037 304.84 17.4857 304.592ZM340.387 304.625C337.959 305.196 335.68 305.488 333.522 306.226C334.861 308.141 337.85 314.585 339.738 314.585C340.723 314.585 344.635 313.694 345.392 312.906C343.65 310.155 342.226 307.299 340.387 304.625ZM371.222 306.082V308.07C371.173 308.794 372.339 313.512 373.026 316.076C373.88 316.529 374.874 316.859 375.589 316.859C377.275 316.859 379.978 314.718 379.978 312.156C379.978 310.505 379.395 308.702 377.272 307.573C375.69 306.717 372.999 306.04 372.278 306.082L371.222 306.082ZM331.356 306.922C328.136 306.977 325.833 310.04 325.833 312.443C325.833 313.417 327.046 316.285 328.44 316.285H332.61C333.317 316.285 335.598 315.408 336.889 314.662C335.141 311.87 333.145 309.296 331.356 306.922ZM622.541 312.851C619.293 313.032 616.517 313.9 614.214 315.446C611.911 316.999 610.044 318.931 608.614 321.243C607.178 323.556 606.184 326.077 605.622 328.807C605.061 331.544 604.86 334.204 605.006 336.802C605.145 339.407 605.653 342.036 606.513 344.697C607.367 347.35 608.636 349.747 610.309 351.886C611.981 354.017 614.045 355.732 616.502 357.02C618.957 358.309 621.817 358.857 625.071 358.677C628.318 358.495 631.095 357.628 633.399 356.082C635.695 354.528 637.569 352.597 638.998 350.284C640.427 347.979 641.458 345.447 642.089 342.71C642.714 339.973 642.961 337.309 642.815 334.704C642.67 332.107 642.139 329.474 641.209 326.82C640.286 324.167 638.983 321.774 637.304 319.643C635.625 317.505 633.562 315.79 631.1 314.509C628.643 313.22 625.795 312.67 622.541 312.851ZM60.7166 315.175L60.1776 325.885L61.4537 325.952C61.5089 324.726 61.9713 324.12 62.8178 324.163L85.2919 325.3L63.2137 344.602C62.2216 345.507 61.5382 345.948 61.1566 345.927C60.6919 345.906 60.4644 345.696 60.4855 345.32L59.2095 345.254L58.6044 357.389L59.8695 357.444C59.9146 356.546 60.3595 356.116 61.2044 356.161L93.2934 357.784C94.1403 357.833 94.5457 358.299 94.5035 359.198L95.7686 359.264L96.2966 348.763L95.0315 348.697C94.9758 349.791 94.5208 350.314 93.6674 350.265L70.2032 349.083L93.7666 328.567C94.5576 327.85 95.1237 327.504 95.4497 327.518C95.8798 327.539 96.0719 327.866 96.0437 328.479L97.3088 328.534L97.8918 317.05L96.6158 316.984C96.5741 317.883 96.1271 318.307 95.2737 318.265L63.1847 316.653C62.3384 316.604 61.9363 316.138 61.9856 315.239L60.7071 315.172L60.7166 315.175ZM622.992 320.663C624.969 320.551 626.758 320.897 628.36 321.712C629.963 322.527 631.337 323.616 632.474 325.002C633.613 326.382 634.521 327.959 635.18 329.728C635.846 331.497 636.231 333.276 636.335 335.073C636.433 336.87 636.251 338.674 635.785 340.505C635.321 342.33 634.596 343.999 633.618 345.497C632.632 347.001 631.394 348.247 629.889 349.229C628.39 350.218 626.64 350.769 624.664 350.874C622.686 350.986 620.894 350.629 619.284 349.814C617.681 348.999 616.308 347.909 615.17 346.523C614.025 345.144 613.131 343.577 612.464 341.809C611.805 340.046 611.417 338.261 611.32 336.464C611.223 334.667 611.405 332.852 611.87 331.02C612.335 329.196 613.059 327.534 614.037 326.029C615.022 324.532 616.268 323.29 617.766 322.308C619.272 321.319 621.014 320.774 622.992 320.663ZM291.76 321.182H292.827V343.873C290.885 336.47 281.678 331.432 275.149 332.908L291.764 321.172L291.76 321.182ZM412.348 321.745C417.913 324.364 422.872 328.752 428.145 332.633C423.066 331.504 414.673 336.366 412.348 342.46V321.745ZM666.828 328.823V332.478C667.181 338.14 667.433 343.904 667.433 349.671C674.456 349.148 681.222 348.548 687.542 348.025V344.37C687.466 339.202 687.264 334.14 687.014 329.077C680.596 328.896 673.849 328.823 666.828 328.823ZM35.3317 328.959C28.3099 329.056 21.5427 329.159 15.1455 329.312C14.8955 334.382 14.6974 339.545 14.6284 344.705C14.6144 345.805 14.6284 347.271 14.6284 348.371C21.0392 348.893 27.6831 349.415 34.7049 349.84C34.7049 344.073 34.9848 338.392 35.3319 332.625L35.3317 328.959ZM305.486 332.018H351.876V346.417C351.939 347.127 347.861 350.925 345.682 352.722C347.604 355.069 350.428 357.899 352.822 360.385C354.91 359.117 357.74 355.366 359.862 352.998C357.947 350.895 353.627 346.909 353.669 346.185V332.018H398.937V387.637C398.972 388.368 398.505 392.867 397.43 394.936C396.25 397.15 393.522 399.246 391.885 401.064C392.683 402.018 394.437 403.622 394.437 404.333C394.437 405.044 390.733 411.737 388.541 415.275C386.313 413.513 384.594 411.772 383.36 410.163C380.73 412.649 378.494 414.89 376.308 417.55L381.698 423.545C372.283 432.55 361.653 440.539 352.216 447.705L322.735 423.567C324.219 421.659 326.222 419.633 327.839 418.101C326.202 416.04 323.382 413.213 321.029 410.747C319.523 412.098 317.829 413.776 315.914 415.573C315.484 415.169 309.996 406.151 309.996 404.751C309.996 404.04 311.739 402.592 312.537 401.637C310.622 399.534 308.457 397.791 307.256 395.807C305.883 393.488 305.451 388.162 305.485 387.437L305.486 332.018ZM318.643 336.479C317.345 336.479 315.954 338.54 314.65 339.57C313.72 340.281 312.328 340.54 311.69 341.403C313.022 341.876 314.229 341.88 314.958 341.922C316.456 343.949 316.504 344.153 318.489 344.153C319.717 344.153 322.185 343.171 322.185 340.608C322.185 340.051 321.175 336.479 318.643 336.479ZM372.04 336.479C371.333 336.479 369.788 337.118 369.081 338.002C368.679 338.496 368.594 339.507 367.97 339.813C366.915 340.328 365.459 340.476 364.12 341.006C365.417 341.869 367.217 341.66 368.542 342.232C369.59 342.691 370.5 344.153 372.04 344.153C373.955 344.153 375.45 342.072 375.45 340.178C375.45 338.653 373.955 336.479 372.04 336.479ZM336.739 343.336C334.643 344.749 332.442 345.588 329.951 345.588C329.244 345.588 323.447 344.44 322.746 344.44C320.137 344.44 316.509 345.884 316.509 349.575C316.509 351.065 317.86 353.962 319.567 354.29C320.656 354.492 321.735 354.922 322.471 355.361C322.034 356.412 321.334 357.103 319.919 358.154L322.482 358.662C323.385 358.377 324.354 357.729 324.715 357.249C325.61 358.356 327.101 358.662 327.982 358.662C328.69 358.662 329.177 358.592 329.544 358.077C328.573 357.29 327.553 356.129 327.553 355.405C327.553 354.695 329.462 355.058 329.94 354.842C334.547 352.704 338.929 351.517 343.702 350.778C342.509 349.705 340.183 350.139 339.17 349.011C340.502 347.771 341.95 346.03 342.789 344.539C341.048 345.228 337.552 347.002 335.914 347.002C335.199 347.002 335.4 347.101 335.199 346.968C335.726 345.994 336.912 344.443 336.739 343.336ZM390.334 343.336C388.142 344.937 383.847 346.163 381.973 346.163C381.266 346.163 375.303 345.025 374.603 345.025C371.799 345.025 368.652 346.927 368.652 350.138C368.652 353.119 373.02 355.108 374.636 355.394V356.034C374.081 356.814 373.109 357.531 372.062 358.033C372.415 358.583 372.612 358.38 372.689 358.916H374.845C375.573 358.951 376.171 357.834 376.858 357.834C377.573 357.834 379.856 359.237 380.543 359.237C381.265 359.237 381.894 358.875 382.248 358.353C381.27 357.573 379.696 356.833 379.696 356.123C379.696 355.398 379.872 355.78 379.872 355.78C385.547 355.188 390.566 352.016 396.692 352.225C395.471 351.04 393.74 350.748 392.457 350.094C393.803 348.91 395.246 347.164 396.065 345.423C394.56 345.667 389.444 348.437 387.209 348.437C386.509 348.437 386.993 348.506 386.791 348.415C387.812 347.398 390.292 345.23 390.334 343.336ZM667.461 352.324C667.461 358.069 667.177 363.76 666.823 369.45C666.789 370.551 666.823 372.005 666.823 373.105C673.844 373.105 680.591 373.009 687.009 372.94C687.26 367.876 687.461 362.708 687.537 357.547V353.88C681.217 353.358 674.455 352.749 667.461 352.324ZM34.6694 352.403C27.745 352.925 21.0003 353.544 14.5822 354.059V357.714C14.6583 362.959 14.8613 368.128 15.1873 373.184C21.6053 373.289 28.2745 373.284 35.2964 373.284V369.629C34.9427 363.935 34.6694 358.17 34.6694 352.403ZM412.199 353.562C417.069 364.65 428.156 364.628 435.872 367.288C443.386 369.844 451.456 372.045 459.226 374.608C459.948 373.821 460.719 372.312 461.426 372.312C462.745 372.312 465.53 375.621 465.53 375.746C465.53 376.443 460.969 380.314 458.742 383.045C453.066 389.925 450.799 398.14 450.799 405.46C450.799 406.184 452.218 414.709 452.218 415.42C452.218 416.833 444.776 419.837 443.957 419.837H436.113C435.392 419.837 434.071 420.963 433.363 420.963C432.662 420.963 427.71 417.817 425.08 416.347C425.08 416.347 425.11 416.047 424.75 415.475C427.053 415.113 427.28 413.887 427.28 412.438C427.28 410.544 426.217 409.589 424.871 409.589C422.428 409.589 422.176 411.289 422.176 412.438C422.176 413.392 421.764 413.701 423.881 415.254L401.715 442.97V466.975H304.039V442.131L281.639 413.507C283.499 412.719 283.872 411.49 283.872 410.459C283.872 408.224 282.83 407.897 281.463 407.897C279.194 407.897 278.779 408.954 278.779 410.459C278.779 411.448 278.378 411.687 280.473 413.275C278.912 414.995 271.084 420.132 269.703 420.132C268.996 420.132 265.311 419.26 264.61 419.26C263.902 419.26 261.344 419.845 260.65 419.845C258.707 419.845 251.961 416.252 250.76 415.715C251.412 409.927 251.86 409.02 251.86 405.468C251.86 394.728 249.088 385.48 238.527 375.18C240.345 373.55 242.096 372.359 244.039 371.503C244.483 372.533 245.008 373.592 245.425 374.351C257.726 370.64 270.613 367.305 283.234 363.154C286.78 361.97 291.181 357.716 292.408 353.857L292.948 387.127C294.183 399.97 298.716 414.763 308.645 426.846C310.429 429.005 311.936 431.564 313.893 433.284C326.042 443.766 339.6 453.766 352.186 463.948C355.974 460.862 360.11 457.596 363.967 454.407C377.185 443.417 392.134 435.044 401.029 418.642C402.541 415.835 404.104 412.394 405.561 409.477C407.233 406.161 408.308 402.281 409.224 398.722C410.334 394.383 410.922 389.245 411.699 384.544L412.205 353.571L412.199 353.562ZM368.614 361.8C366.158 364.154 361.53 368.784 361.53 369.474C361.53 370.198 365.854 374.232 368.317 376.607C371.051 374.239 373.074 371.953 375.413 369.209C373.379 366.465 370.806 363.862 368.614 361.8ZM337.581 362.087C336.873 362.087 330.365 368.784 330.365 369.474C330.365 370.198 334.124 373.967 337.163 376.607C339.612 374.531 344.225 370.066 344.225 369.341C344.225 368.63 338.282 362.087 337.581 362.087ZM352.872 362.087C352.177 362.087 347.989 366.734 345.644 369.485C347.712 371.686 350.003 374.253 352.75 376.607C355.2 374.232 357.756 371.663 359.824 369.198C357.756 366.733 353.586 362.087 352.872 362.087ZM425.433 367.497C424.135 367.497 422.463 368.376 422.463 370.479C422.463 371.057 423.197 373.471 425.147 373.471C426.111 373.471 428.414 372.682 428.414 370.203C428.414 369.242 426.744 367.497 425.433 367.497ZM280.457 368.337C278.597 368.337 277.641 370.728 277.641 371.473C277.641 372.643 278.553 374.322 280.6 374.322C281.967 374.322 283.581 373.136 283.581 371.318C283.581 369.981 282.004 368.337 280.457 368.337ZM605.887 368.469L604.303 378.86L605.568 379.059C605.734 377.986 606.225 377.509 607.064 377.634L630.297 381.19L604.798 399.199C603.937 399.833 603.341 400.132 603.016 400.083C602.593 400.02 602.423 399.672 602.52 399.067L601.266 398.879L599.539 410.252L600.793 410.451C600.932 409.56 601.416 409.171 602.256 409.303L634.015 414.172C634.855 414.305 635.204 414.804 635.071 415.696L636.326 415.884L637.943 405.284L636.689 405.096C636.494 406.314 635.988 406.851 635.148 406.719L612.905 403.318L636.809 386.357C637.878 385.557 638.612 385.197 638.988 385.253C639.452 385.322 639.656 385.539 639.593 385.916L640.858 386.114L642.684 374.112L641.43 373.913C641.291 374.805 640.807 375.175 639.967 375.05L608.197 370.192C607.357 370.067 607.002 369.548 607.141 368.657L605.887 368.469ZM86.6766 372.599C85.5092 372.575 84.2367 372.663 82.8593 372.875L62.2219 376.077C61.3894 376.203 60.8817 375.708 60.7148 374.587L59.4497 374.785L61.1768 386.004L62.4309 385.817C62.2158 384.41 62.5265 383.652 63.366 383.52L84.3554 380.273C87.2973 379.821 89.4472 380.445 90.8349 382.173C92.2226 383.893 93.2102 386.588 93.772 390.244C94.3273 393.894 94.2028 396.745 93.398 398.813C92.5931 400.874 90.7226 402.136 87.7877 402.589L66.8095 405.847C65.9627 405.972 65.4623 405.52 65.3024 404.489L64.0483 404.687L65.8194 416.204L67.0735 416.006C66.8724 414.69 67.198 413.973 68.0305 413.841L88.6679 410.65C91.4155 410.232 93.6292 409.477 95.3011 408.397C96.9733 407.332 98.2198 405.913 99.0524 404.157C99.878 402.403 100.292 400.309 100.306 397.885C100.314 395.461 100.092 392.71 99.6134 389.626C99.1416 386.54 98.5338 383.837 97.7983 381.532C97.0559 379.227 96.0295 377.361 94.7181 375.934C93.3998 374.506 91.7818 373.534 89.8668 373.019C88.9058 372.761 87.844 372.622 86.6766 372.599ZM666.356 375.746C665.828 381.513 665.202 387.175 664.397 392.795C664.314 393.888 664.397 395.356 664.397 396.45C671.439 396.972 678.192 397.404 684.507 397.676C685.207 392.689 685.728 387.633 686.256 382.437V378.783C679.935 377.752 673.273 376.798 666.356 375.746ZM35.8167 376.006C28.8715 377.058 22.2253 378.21 15.8833 379.241V382.885C16.3346 388.053 16.9317 393.148 17.6324 398.212C23.9812 397.836 30.7191 397.331 37.6644 396.809V393.154C36.8595 387.464 36.2398 381.794 35.8167 376.006ZM280.75 377.176C279.265 377.176 277.636 378.77 277.636 380.456C277.636 381.751 279.265 383.426 280.75 383.426C281.888 383.426 283.577 381.781 283.577 380.29C283.577 378.974 282.345 377.176 280.75 377.176ZM425.146 377.728C423.89 377.728 422.175 378.628 422.175 380.732C422.175 382.083 423.231 383.724 425.278 383.724C426.429 383.724 428.138 382.264 428.138 380.732C428.138 379.374 426.97 377.728 425.146 377.728ZM337.152 378.027L329.793 385.414C332.415 388.45 334.417 390.756 336.866 393.11L344.237 385.723C342.192 382.969 339.607 380.391 337.146 378.023L337.152 378.027ZM352.41 378.027C350.537 380.13 347.716 382.973 345.391 386.01L352.75 393.11C355.2 390.756 359.824 386.138 359.824 385.414C359.824 384.704 356.739 381.704 355.116 379.893C354.457 379.181 353.443 378.649 352.401 378.022L352.41 378.027ZM367.745 378.027C365.289 380.68 363.008 382.972 360.969 385.723L368.031 392.812C370.792 390.465 375.127 386.138 375.127 385.414C375.127 384.703 370.215 379.782 367.745 378.027ZM383.927 378.027C381.179 380.68 376.82 385.131 376.82 385.856C376.82 386.699 382.879 392.185 384.246 392.812L391.011 385.414L383.927 378.027ZM321.278 378.303C318.822 380.678 314.491 384.844 314.491 385.569C314.491 386.279 318.528 390.184 321.289 392.823L328.373 385.701C326.028 382.95 323.755 380.364 321.278 378.303ZM280.752 387.136C278.892 387.136 277.914 388.76 277.914 390.118C277.914 391.455 278.892 393.099 280.752 393.099C281.89 393.099 283.579 392.2 283.579 390.118C283.579 388.76 282.639 387.136 280.752 387.136ZM425.148 388.55C423.892 388.55 422.178 389.518 422.178 391.399C422.178 392.896 423.31 394.535 425.148 394.535C425.758 394.535 428.14 393.634 428.14 391.531C428.14 390.389 426.973 388.55 425.148 388.55ZM368.064 393.96C365.303 396.607 362.715 399.182 360.683 401.933L367.745 409.033C368.148 408.866 374.852 402.241 374.852 401.503C374.852 400.792 370.257 396.336 368.064 393.96ZM320.993 394.225L313.908 401.634C315.955 404.386 320.148 409.021 320.85 409.021C321.044 409.021 328.099 402.848 328.099 401.491C328.099 400.787 323.754 396.58 320.993 394.225ZM383.342 394.225C381.178 396.314 378.309 399.175 376.269 401.933C378.898 404.684 380.899 406.975 383.661 409.022C385.826 406.953 390.437 402.194 390.437 401.491C390.437 400.787 385.82 396.294 383.342 394.225ZM336.59 394.535C335.882 394.535 331.552 399.182 329.505 401.933C331.552 404.377 334.106 406.973 336.59 409.32C339.344 406.973 343.663 402.779 343.663 402.076C343.663 401.366 337.304 394.535 336.59 394.535ZM281.179 397.372C280.236 397.372 277.912 398.434 277.912 400.343C277.912 401.317 279.342 403.633 280.75 403.633C282.256 403.633 283.864 402.056 283.864 400.343C283.864 399.785 283.337 397.372 281.179 397.372ZM424.871 398.797C423.525 398.797 421.879 400.176 421.879 401.778C421.879 402.739 422.783 405.047 424.871 405.047C425.662 405.047 427.853 403.488 427.853 401.922C427.853 400.431 426.217 398.797 424.871 398.797ZM38.5275 398.929C31.7834 400.406 25.1919 401.886 18.9681 403.39V407.034C19.773 412.098 20.7256 417.159 21.7733 422.25C28.1705 421.449 34.8589 420.574 41.7833 419.523V415.868C40.5492 410.26 39.4994 404.606 38.521 398.913L38.5275 398.929ZM663.434 399.263C662.553 404.925 661.51 410.549 660.178 416.113C660.053 417.2 660.178 418.668 660.178 419.768C667.199 420.841 673.895 421.793 680.188 422.573C681.263 417.587 682.211 412.524 683.092 407.467V403.801C676.847 402.324 670.276 400.732 663.434 399.263ZM219.956 410.758C222.398 411.719 222.64 413.588 222.64 415.141C222.64 420.476 217.536 429.433 217.536 430.512C217.536 432.1 231.804 436.934 237.667 439.434L201.178 462.446H200.034L196.591 449.019C211.675 440.424 217.57 423.663 219.956 410.758ZM344.076 411.023C342.237 411.023 341.556 411.659 340.181 414.291C339.571 415.42 337.868 415.6 336.584 416.478L340.445 416.698C341.5 417.499 343.096 418.708 343.79 418.708C344.754 418.708 347.607 417.351 347.607 414.843C347.607 413.889 346.643 411.023 344.076 411.023ZM483.093 411.023C483.78 411.322 483.899 412.006 484.094 412.348C485.592 421.541 487.341 432.057 494.523 440.483C494.856 440.846 495.135 441.901 495.843 442.681C498.812 445.892 501.984 448.935 504.599 451.47L501.321 463.617L464.392 440.318C465.96 439.224 467.676 438.471 469.397 437.844C472.159 436.813 484.237 433.451 484.237 431.793C484.237 431.083 482.638 427.901 482.048 425.874C481.23 423.068 480.266 417.409 480.266 416.699C480.266 415.306 480.291 412.478 483.093 411.023ZM362.82 416.776C360.273 417.981 358.129 419.26 355.845 419.26C355.138 419.26 350.452 418.134 349.751 418.134C346.17 418.134 342.81 419.652 342.81 424.395C342.81 426.017 344.014 427.317 345.186 428.215C346.359 429.093 348.163 428.636 349.036 429.805C348.246 430.76 347.382 431.616 346.792 432.765L349.278 432.919C349.993 432.919 350.599 432.08 351.314 432.08C352.014 432.08 353.423 433.195 354.152 433.195C354.852 433.195 355.282 432.917 355.824 432.743C354.901 431.579 353.569 430.354 353.569 429.651C353.569 428.94 360.164 427.083 363.293 426.15C365.763 425.405 368.348 424.964 371.137 424.483C369.687 422.595 366.953 422.779 365.747 422.319C366.829 421.156 368.016 419.644 368.53 417.924C367.045 418.286 364.043 420.121 362.205 420.121C361.518 420.121 361.699 420.205 361.512 420.066C362.046 419.112 362.639 417.926 362.82 416.776ZM658.771 422.319C657.473 427.912 655.983 433.52 654.304 438.96C654.138 440.046 654.304 441.514 654.304 442.615C661.153 444.196 667.719 445.574 674.039 446.877C675.469 441.988 676.772 437.096 678 432.102V428.448C671.936 426.441 665.542 424.429 658.771 422.319ZM43.2699 422.432C36.6024 424.431 30.1061 426.543 24.0626 428.549V432.204C25.2906 437.169 26.5942 442.084 28.0998 447.078C34.3168 445.748 40.91 444.265 47.7578 442.683V439.029C46.0788 433.505 44.5952 428.018 43.2699 422.432ZM424.595 437.195C426.614 437.195 445.143 449.178 448.016 450.954C457.258 456.679 466.866 463.115 476.177 468.986C478.974 470.762 482.147 472.788 485.242 474.662C490.897 478.158 497.121 481.628 502.436 485.682C503.115 486.183 503.514 487.964 503.514 488.674C503.514 489.391 503.185 490.253 502.436 491.236L420.508 439.89C420.473 438.399 423.958 437.196 424.589 437.196L424.595 437.195ZM280.74 437.471C281.739 437.471 284.649 438.573 285.294 439.492C278.349 445.189 269.744 450.03 262.105 454.675C241.651 467.155 221.099 479.536 200.194 491.788C199.473 490.513 198.566 488.39 198.566 487.68C198.566 485.256 200.73 484.339 202.472 483.385C206.641 481.031 211.295 478.296 215.43 475.81C227.69 468.372 240.188 460.697 252.844 453.063C258.006 449.93 263.292 446.51 268.718 443.391C273.478 440.639 276.361 437.471 280.74 437.471ZM49.5838 444.969C43.0897 447.504 36.799 449.96 30.8388 452.411V456.077C32.4902 460.959 34.1387 465.757 35.9982 470.598C42.1385 468.843 48.6365 466.906 55.3041 464.9V461.246C53.277 455.903 51.3388 450.493 49.5838 444.969ZM652.468 444.969C651.878 446.85 651.236 448.707 650.598 450.568C649.376 454.161 648.116 457.722 646.77 461.245C646.575 462.318 646.77 463.807 646.77 464.9C653.541 466.907 659.929 468.836 666.076 470.598C666.943 468.355 667.772 466.065 668.584 463.774C668.848 463.008 669.101 462.243 669.365 461.477C669.732 460.398 670.115 459.321 670.476 458.242C670.704 457.545 670.947 456.852 671.169 456.155V452.5C665.278 450.042 658.983 447.497 652.468 444.969ZM413.212 450.314L439.999 467.473H413.212V450.314ZM94.9071 452.025L91.4199 463.663L91.5959 464.017L101.86 467.429H102.729L106.073 455.702L105.875 455.338L94.9071 452.025ZM605.359 455.382C601.591 456.531 597.959 457.587 594.546 458.882L593.666 459.964L596.911 470.775H597.89C598.236 470.775 604.651 468.602 607.724 467.55L608.605 466.844L605.359 455.382ZM57.6493 467.263C51.4323 470.328 45.3894 473.302 39.5751 476.185V479.84C41.6011 484.555 43.7108 489.265 45.8895 494.008C51.8846 491.731 58.1731 489.27 64.6677 486.742V483.087C62.1352 477.947 59.8557 472.605 57.6493 467.263ZM644.312 467.363C642.203 472.683 639.821 477.942 637.393 483.186C637.157 484.258 637.393 485.747 637.393 486.841C643.86 489.369 650.176 491.827 656.171 494.007C658.35 489.369 660.458 484.731 662.386 479.94V476.285C656.67 473.401 650.626 470.427 644.312 467.363ZM292.393 479.995H413.618C412.515 483.018 406.904 485.825 404.851 485.825H300.917C300.203 485.825 296.823 484.626 295.109 483.407C294.006 482.662 293.268 481.444 292.393 479.995ZM301.48 486.687H402.006C403.935 486.687 404.877 487.933 404.877 489.248C404.877 489.959 404.553 491.103 403.887 492.064H301.063C300.14 491.465 299.171 489.959 299.171 489.248C299.171 488.511 300.009 486.687 301.48 486.687ZM67.3104 488.597C61.2669 492.107 55.4729 495.524 49.9296 498.756V502.411C52.2401 507.028 54.6905 511.562 57.2229 516.048C63.0163 513.415 69.1572 510.533 75.3742 507.545V503.891C72.5919 498.925 69.8635 493.834 67.3104 488.597ZM634.711 488.597C632.178 493.765 629.457 498.827 626.648 503.813C626.37 504.879 626.648 506.375 626.648 507.468C632.962 510.428 639.1 513.316 644.887 515.948C647.35 511.484 649.81 506.951 652.092 502.411V498.756C646.673 495.42 640.781 492.107 634.711 488.597ZM131.598 494.383L130.531 495.178C131.142 496.007 131.165 496.643 130.575 497.088L108.507 513.563C107.917 514.002 107.335 513.845 106.78 513.1L105.724 513.895L111.786 522.066L112.842 521.271C112.578 520.915 112.41 520.553 112.347 520.177C112.277 519.794 112.402 519.487 112.721 519.25L121.741 512.503L129.475 522.927C129.967 523.596 130.192 524.073 130.157 524.351C130.115 524.63 129.957 524.901 129.673 525.18L130.454 526.251L136.658 521.613L135.866 520.553C135.519 520.748 135.221 520.808 134.964 520.752C134.707 520.696 134.342 520.338 133.842 519.67L126.119 509.245L132.368 504.575L144.271 520.63C144.763 521.298 145.024 521.838 145.052 522.242C145.079 522.653 144.993 522.935 144.799 523.081L145.591 524.141L151.839 519.47L151.047 518.399C150.735 518.636 150.383 518.698 149.98 518.565C149.578 518.44 149.127 518.03 148.627 517.361L131.55 494.374L131.598 494.383ZM561.164 494.758L560.603 495.454C561.297 496.012 561.189 496.86 560.273 498.016L541.011 522.253C540.672 522.678 540.309 523.03 539.9 523.302C539.497 523.574 539.059 523.528 538.602 523.159L538.052 523.854L545.818 530.06L546.357 529.376C545.712 528.853 545.448 528.347 545.587 527.852C545.719 527.364 545.969 526.919 546.302 526.494L561.34 507.556L572.483 540.186C572.69 540.799 572.786 541.455 572.758 542.152C572.73 542.862 572.594 543.358 572.351 543.664L573.044 544.228L581.294 533.837L580.601 533.285C580.025 534.016 579.43 534.132 578.819 533.638C578.507 533.394 578.257 532.901 578.049 532.169C577.848 531.438 577.588 530.64 577.29 529.762L566.307 498.911L561.154 494.761L561.164 494.758ZM78.6201 509.411C72.9027 513.346 67.2811 517.177 62.1191 520.862V524.517C64.7488 528.884 67.4514 533.252 70.3586 537.536C75.9787 534.478 81.8497 531.163 87.8166 527.653V523.998C84.6527 519.29 81.6035 514.405 78.6201 509.411ZM623.407 509.411C620.5 514.405 617.346 519.213 614.21 523.998C613.898 525.05 614.21 526.56 614.21 527.653C620.253 531.066 626.115 534.402 631.734 537.536C634.545 533.252 637.279 528.883 639.984 524.517V520.862C634.718 517.177 629.201 513.346 623.407 509.411ZM91.49 529.261C86.0433 533.621 80.7981 537.915 75.858 541.926V545.581C78.7652 549.795 81.9308 553.981 85.0877 557.992C90.4233 554.503 95.971 550.742 101.764 546.807V543.152C98.171 538.618 94.7455 533.97 91.49 529.261ZM610.481 529.338C607.171 534.046 603.728 538.695 600.217 543.152C599.856 544.19 600.217 545.713 600.217 546.807C606.01 550.742 611.531 554.504 616.894 557.993C620.051 553.981 623.135 549.866 626.09 545.681V542.026C621.177 537.917 615.92 533.621 610.481 529.338ZM158.847 534.44C156.62 534.231 154.414 534.53 152.236 535.345C150.064 536.167 148.016 537.6 146.108 539.641C144.193 541.688 142.887 543.821 142.214 546.056C141.534 548.285 141.383 550.505 141.73 552.726C142.077 554.941 142.894 557.103 144.205 559.186C145.523 561.268 147.17 563.23 149.133 565.082C151.097 566.935 153.154 568.459 155.305 569.643C157.463 570.827 159.645 571.532 161.872 571.741C164.099 571.949 166.305 571.639 168.483 570.824C170.662 570.002 172.703 568.581 174.611 566.54C176.526 564.493 177.825 562.353 178.505 560.124C179.178 557.888 179.347 555.658 179 553.444C178.653 551.229 177.843 549.045 176.58 546.907C175.317 544.777 173.703 542.775 171.74 540.922C169.776 539.07 167.691 537.579 165.491 536.45C163.285 535.315 161.074 534.649 158.847 534.44ZM526.458 539.884C524.771 540.064 523.104 540.563 521.452 541.385C519.801 542.214 518.276 543.228 516.854 544.433C514.689 546.285 513.055 548.163 511.959 550.064C510.863 551.958 510.083 553.698 509.605 555.265C509.126 556.832 508.831 558.146 508.714 559.218C508.588 560.298 508.418 560.93 508.197 561.118C508.009 561.277 507.807 561.388 507.592 561.438C507.383 561.486 507.169 561.543 506.953 561.592L506.722 562.465L517.734 563.735L517.965 562.862C517.723 562.876 517.421 562.78 517.074 562.564C516.727 562.341 516.474 562.134 516.315 561.946C515.649 561.151 515.367 560.191 515.457 559.042C515.547 557.9 515.843 556.736 516.315 555.552C516.801 554.368 517.41 553.268 518.152 552.251C518.894 551.227 519.583 550.435 520.22 549.899C520.852 549.355 521.551 548.857 522.322 548.397C523.092 547.938 523.887 547.623 524.72 547.469C525.553 547.303 526.355 547.334 527.14 547.536C527.923 547.745 528.645 548.24 529.318 549.026C530.304 550.19 530.663 551.626 530.407 553.333C530.143 555.039 529.602 556.937 528.79 559.02C527.978 561.102 527.066 563.284 526.04 565.568C525.02 567.859 524.221 570.185 523.653 572.547C523.076 574.915 522.888 577.233 523.103 579.503C523.318 581.774 524.266 583.901 525.952 585.886L527.657 587.906L528.339 587.343C528.054 587.002 528.013 586.695 528.229 586.416C528.444 586.137 528.748 585.822 529.164 585.466L552.771 565.359C553.181 565.01 553.582 564.695 553.97 564.431C554.352 564.159 554.717 564.241 555.07 564.652L555.752 564.078L549.416 556.591L548.745 557.165C549.377 557.917 549.579 558.524 549.35 558.976C549.121 559.429 548.802 559.832 548.393 560.18L529.89 575.948L529.417 575.385C529.632 573.582 530.142 571.819 530.968 570.085C531.787 568.358 532.685 566.605 533.663 564.829C534.641 563.066 535.581 561.303 536.49 559.562C537.399 557.82 538.064 556.087 538.481 554.339C538.904 552.59 538.952 550.85 538.646 549.116C538.341 547.382 537.432 545.622 535.94 543.86C534.545 542.209 533.036 541.094 531.419 540.503C529.795 539.918 528.144 539.716 526.458 539.884ZM159.709 541.175C161.221 541.287 162.699 541.666 164.142 542.313C165.585 542.968 166.88 543.829 168.025 544.908C169.17 545.98 170.099 547.233 170.841 548.64C171.577 550.039 172.048 551.49 172.249 553.002C172.451 554.505 172.346 556.016 171.93 557.507C171.5 558.997 170.684 560.385 169.477 561.681C168.27 562.969 166.93 563.87 165.473 564.386C164.016 564.901 162.53 565.109 161.018 565.005C159.505 564.893 158.039 564.503 156.595 563.856C155.152 563.201 153.857 562.34 152.712 561.261C151.574 560.181 150.62 558.947 149.885 557.54C149.15 556.14 148.685 554.679 148.477 553.167C148.276 551.656 148.384 550.164 148.807 548.673C149.23 547.176 150.042 545.777 151.249 544.488C152.463 543.2 153.789 542.298 155.253 541.783C156.71 541.268 158.196 541.071 159.709 541.175ZM105.707 548.043C100.537 552.759 95.623 557.392 91.0647 561.78V565.435C94.298 569.342 97.7278 573.286 101.142 577.151C106.248 573.216 111.526 569.099 116.939 564.74V561.074C113.041 556.845 109.29 552.491 105.674 548.025L105.707 548.043ZM596.293 548.043C592.679 552.508 588.915 556.859 585.051 561.073C584.648 562.09 585.051 563.645 585.051 564.739C590.463 569.099 595.734 573.216 600.848 577.151C604.366 573.286 607.69 569.447 610.924 565.435V561.78C606.366 557.392 601.457 552.759 596.293 548.043ZM191.526 559.251L190.8 560.366C191.494 560.826 191.924 561.208 192.076 561.515C192.229 561.814 192.193 562.137 191.977 562.464L181.78 578.078C180.947 579.352 180.434 580.776 180.24 582.329C180.046 583.882 180.247 585.487 180.823 587.166C181.399 588.844 182.433 590.525 183.925 592.245C185.417 593.958 187.38 595.624 189.843 597.247C192.307 598.863 194.609 600.021 196.774 600.703C198.939 601.393 200.897 601.671 202.659 601.531C204.415 601.399 205.973 600.93 207.313 600.129C208.652 599.335 209.736 598.296 210.569 597.015L220.766 581.402C221.168 580.781 221.822 580.776 222.724 581.368L223.45 580.253L214.903 574.632L214.166 575.736C215.192 576.412 215.514 577.06 215.112 577.68L205.849 591.869C204.559 593.847 202.8 594.958 200.58 595.215C198.367 595.466 195.773 594.626 192.824 592.675C189.868 590.739 188.071 588.692 187.412 586.547C186.76 584.408 187.082 582.352 188.38 580.374L197.632 566.196C198.034 565.576 198.688 565.56 199.59 566.151L200.327 565.036L191.526 559.251ZM121.212 565.617C119.027 567.916 116.891 570.203 114.81 572.452C114.643 572.62 114.496 572.786 114.337 572.96C111.999 575.488 109.727 577.981 107.528 580.391C107.132 581.408 107.528 582.946 107.528 584.046C111.142 587.73 114.729 591.391 118.517 594.978C123.333 590.771 128.32 586.232 133.434 581.517V577.851C129.202 573.916 125.153 569.803 121.212 565.617ZM580.72 565.695C576.779 569.803 572.645 573.917 568.509 577.852H568.498V581.518C573.591 586.233 578.61 590.772 583.349 594.979C586.18 592.36 588.933 589.607 591.632 586.807C592.514 585.895 593.423 584.996 594.283 584.069L594.306 584.046V580.391C590.122 575.676 585.452 570.786 580.72 565.695ZM489.043 569.029C487.891 568.958 486.713 569.007 485.522 569.173C483.136 569.501 480.77 570.339 478.438 571.69C476.572 572.777 474.825 574.106 473.202 575.666C471.585 577.233 470.298 578.95 469.341 580.844C468.39 582.732 467.876 584.718 467.8 586.807C467.731 588.897 468.315 591.017 469.572 593.19C470.605 594.987 471.893 596.275 473.455 597.076C475.023 597.877 476.687 598.312 478.449 598.368C480.211 598.431 482.007 598.179 483.839 597.629C485.671 597.079 487.355 596.36 488.889 595.475C490.838 594.34 492.522 592.94 493.938 591.268C495.353 589.59 496.694 587.791 497.964 585.869C501.391 592.805 499.794 598.196 493.168 602.035C492.488 602.431 491.69 602.811 490.781 603.194C489.872 603.584 488.924 603.888 487.953 604.11C486.975 604.334 486.007 604.45 485.049 604.464C484.099 604.475 483.25 604.34 482.508 604.033C482.217 603.914 481.959 603.723 481.716 603.459C481.487 603.194 481.303 602.961 481.177 602.752L480.198 602.809L480.418 612.062L481.177 612.216C481.371 611.763 481.707 611.395 482.178 611.123C482.511 610.928 483.06 610.836 483.795 610.836C484.53 610.836 485.455 610.779 486.578 610.67C487.703 610.558 489.019 610.244 490.517 609.743C492.016 609.248 493.717 608.454 495.632 607.347C498.387 605.744 500.642 603.884 502.398 601.759C504.146 599.635 505.367 597.304 506.061 594.77C506.755 592.234 506.895 589.608 506.479 586.864C506.062 584.12 505.054 581.354 503.465 578.582C502.118 576.242 500.501 574.314 498.613 572.796C496.719 571.278 494.651 570.215 492.431 569.594C491.317 569.288 490.194 569.1 489.043 569.029ZM487.349 575.522C488.369 575.528 489.323 575.774 490.198 576.262C491.079 576.749 491.825 577.55 492.464 578.658C493.102 579.765 493.409 580.824 493.388 581.827C493.374 582.83 493.12 583.78 492.607 584.665C492.107 585.556 491.416 586.379 490.55 587.138C489.682 587.898 488.742 588.574 487.723 589.159C486.702 589.751 485.655 590.229 484.565 590.605C483.476 590.981 482.417 591.169 481.397 591.169C480.377 591.163 479.422 590.916 478.548 590.429C477.674 589.941 476.92 589.14 476.282 588.033C475.643 586.918 475.344 585.866 475.358 584.863C475.372 583.861 475.632 582.91 476.139 582.026C476.645 581.134 477.329 580.305 478.196 579.552C479.063 578.793 480.015 578.112 481.034 577.52C482.054 576.935 483.102 576.461 484.191 576.085C485.281 575.708 486.329 575.522 487.349 575.522ZM138.065 582.147C133.68 587.566 129.554 592.907 125.613 597.894C125.259 598.931 125.613 600.448 125.613 601.549C129.478 605.03 133.334 608.366 137.373 611.674C141.758 607.036 146.425 602.139 151.233 597.077V593.422C146.751 589.737 142.381 586.082 138.065 582.147ZM563.689 582.324C559.471 586.181 555.087 589.912 550.598 593.498V597.153C555.337 602.314 560.008 607.212 564.393 611.773C568.432 608.514 572.283 605.202 576.142 601.692V598.048C572.207 592.977 568.074 587.735 563.689 582.324ZM452.473 584.907L441.417 589.38L441.759 590.208C442.293 590.095 442.744 590.067 443.112 590.13C443.48 590.2 443.79 590.546 444.047 591.179C444.324 591.869 444.296 592.555 443.97 593.244C443.637 593.934 443.086 594.444 442.309 594.757C441.948 594.903 441.533 594.978 441.055 594.978C440.583 594.984 440.264 594.792 440.098 594.382L439.272 594.702L442.749 603.336L443.563 603.005C443.549 602.58 443.68 602.198 443.937 601.857C444.194 601.515 444.511 601.197 444.872 600.918C445.232 600.639 445.622 600.391 446.038 600.167C446.448 599.952 446.808 599.774 447.127 599.648L456.313 622.516C456.625 623.297 456.659 623.878 456.423 624.261C456.18 624.659 455.836 624.942 455.378 625.122L455.708 625.951L466.961 621.39L466.631 620.573C466.173 620.762 465.721 620.792 465.256 620.695C464.791 620.59 464.403 620.149 464.09 619.37L451.505 588.01C451.318 587.557 451.36 587.138 451.637 586.762C451.908 586.386 452.29 586.048 452.803 585.735L452.473 584.907ZM233.899 585.769L233.393 587.005C234.212 587.34 234.474 587.847 234.197 588.529L223.702 614.048C223.417 614.731 222.882 614.901 222.063 614.567H222.051L221.545 615.793L229.906 619.26L230.412 618.023C229.462 617.633 229.134 617.105 229.411 616.422L237.573 596.557L247.023 621.557C247.321 622.371 247.605 623.098 247.848 623.732C248.091 624.366 248.171 624.777 248.101 624.958C248.004 625.188 247.793 625.233 247.474 625.101L246.979 626.327L255.823 629.982L256.318 628.756C255.506 628.422 255.231 627.915 255.515 627.232L266.01 601.714C266.287 601.031 266.848 600.853 267.66 601.195L268.166 599.969L259.871 596.524L259.365 597.75C260.274 598.126 260.578 598.658 260.3 599.34L252.699 617.835L243.513 593.741C242.93 592.334 242.679 591.509 242.776 591.279C242.845 591.098 243.048 591.052 243.381 591.135L243.887 589.91L233.899 585.769ZM156.145 597.341C152.183 603.101 148.418 608.722 144.914 613.959C144.595 615.004 144.914 616.514 144.914 617.614C148.945 620.748 153.077 623.838 157.268 626.79C161.306 621.901 165.614 616.66 170.006 611.221V607.566C165.268 604.355 160.703 600.949 156.145 597.341ZM545.598 597.517C541.04 601.028 536.474 604.435 531.638 607.743V611.397C536.023 616.809 540.263 622.073 544.377 627.066C548.589 624.078 552.698 621.036 556.764 617.901V614.235C553.225 608.9 549.567 603.304 545.598 597.517ZM279.459 603.37L279.184 604.673C280.288 604.904 280.756 605.384 280.603 606.109L274.938 633.129C274.785 633.846 274.16 634.094 273.057 633.858L272.782 635.161L293.067 639.456C295.898 640.054 298.401 640.101 300.559 639.6C302.717 639.105 304.571 638.261 306.125 637.049C307.68 635.851 308.949 634.36 309.92 632.577C310.899 630.794 311.598 628.888 312.021 626.868C312.452 624.841 312.564 622.828 312.362 620.795C312.161 618.768 311.582 616.875 310.624 615.141C309.66 613.4 308.262 611.863 306.444 610.525C304.619 609.181 302.294 608.21 299.47 607.61L279.459 603.37ZM391.07 610.062C389.812 609.985 388.469 610.033 387.032 610.216L366.736 612.789L366.912 614.114C368.029 613.967 368.637 614.259 368.727 614.997L372.182 642.393C372.279 643.123 371.759 643.557 370.641 643.696L370.806 645.021L391.342 642.364C394.207 642.002 396.59 641.233 398.47 640.056C400.344 638.872 401.824 637.455 402.892 635.805C403.975 634.154 404.687 632.326 405.027 630.328C405.367 628.322 405.405 626.291 405.148 624.243C404.891 622.196 404.34 620.244 403.487 618.391C402.64 616.538 401.477 614.955 399.999 613.632C398.522 612.302 396.701 611.308 394.543 610.639C393.461 610.305 392.291 610.097 391.034 610.021L391.07 610.062ZM286.905 610.537L296.256 612.513C297.741 612.827 299.143 613.22 300.447 613.673C301.752 614.125 302.832 614.803 303.693 615.715C304.553 616.628 305.14 617.829 305.453 619.326C305.764 620.823 305.673 622.78 305.167 625.189C304.66 627.599 303.96 629.448 303.065 630.744C302.163 632.039 301.129 632.953 299.963 633.482C298.798 634.019 297.523 634.248 296.135 634.178C294.748 634.115 293.308 633.917 291.823 633.604L282.461 631.627L286.905 610.537ZM175.273 611.254C171.762 617.202 168.427 623.064 165.339 628.657C165.061 629.722 165.339 631.21 165.339 632.312C169.648 635.097 173.941 637.898 178.43 640.538C182.114 635.371 185.975 629.775 189.936 624.085V620.43C184.996 617.449 180.088 614.416 175.273 611.254ZM526.544 611.254C521.833 614.416 516.891 617.449 511.902 620.43V624.085C515.94 629.852 519.697 635.371 523.486 640.538C527.871 637.899 532.261 635.195 536.576 632.312V628.657C533.391 623.064 530.083 617.271 526.544 611.254ZM353.592 611.696C353.558 612.588 352.772 612.996 351.26 612.932L325.167 611.806L325.111 613.142C325.354 613.148 325.601 613.241 325.837 613.43C326.08 613.611 326.188 613.902 326.167 614.291L324.99 641.885C324.97 642.275 324.844 642.553 324.594 642.714C324.337 642.872 324.089 642.949 323.846 642.935L323.78 644.26L350.754 645.419C351.337 645.447 351.829 645.492 352.217 645.563C352.606 645.625 352.799 645.875 352.778 646.314L354.098 646.38L354.428 638.639L353.108 638.573C353.088 639.019 352.873 639.372 352.47 639.622C352.061 639.88 351.574 639.993 350.985 639.964L332.174 639.147L332.548 630.457L343.274 630.91C344.252 630.95 345.006 631.051 345.54 631.197C346.074 631.336 346.256 631.677 346.09 632.213L347.553 632.279L347.894 624.461L346.574 624.405C346.553 624.948 346.332 625.272 345.936 625.377C345.54 625.481 344.932 625.511 344.099 625.476L332.779 624.99L333.087 617.614L351.018 618.387C352.538 618.45 353.283 618.955 353.24 619.889L354.56 619.945L354.913 611.752L353.592 611.696ZM389.938 615.616C391.319 615.616 392.568 615.91 393.678 616.488C394.788 617.066 395.739 618.009 396.516 619.326C397.3 620.635 397.851 622.519 398.156 624.957C398.468 627.402 398.399 629.38 397.969 630.898C397.545 632.416 396.874 633.613 395.944 634.498C395.022 635.382 393.888 636.029 392.556 636.419C391.224 636.817 389.794 637.104 388.288 637.292L378.805 638.495L376.11 617.107L385.604 615.903C387.109 615.715 388.557 615.616 389.938 615.616ZM195.358 623.588C192.298 629.787 189.391 635.892 186.679 641.687C186.443 642.759 186.679 644.248 186.679 645.342C191.168 647.78 195.701 650.229 200.363 652.486C203.701 647.074 207.117 641.31 210.649 635.294V631.639C205.459 629.11 200.367 626.374 195.358 623.588ZM506.454 623.588C501.445 626.374 496.355 629.1 491.262 631.705V635.371C494.697 641.312 498.208 647.158 501.449 652.597C506.111 650.236 510.676 647.849 515.144 645.342V641.687C512.431 635.9 509.514 629.884 506.454 623.588ZM216.519 634.421C213.882 640.891 211.497 647.174 209.214 653.115C209.013 654.194 209.214 655.688 209.214 656.781C213.877 658.961 218.622 661.067 223.361 662.976C226.24 657.306 229.321 651.255 232.304 644.965V641.31C226.962 639.229 221.681 636.88 216.519 634.421ZM485.383 634.421C480.2 636.879 474.94 639.23 469.598 641.41V645.076C472.581 651.268 475.568 657.313 478.475 662.976C483.291 661.067 488.026 658.961 492.688 656.781V653.126C490.385 647.185 488.02 640.891 485.383 634.421ZM238.102 643.596C235.999 650.24 233.96 656.699 232.129 662.821C231.969 663.907 232.129 665.387 232.129 666.487C236.944 668.235 241.861 669.991 246.705 671.544C249.161 665.701 251.79 659.478 254.427 653.015V649.36C248.911 647.605 243.444 645.707 238.102 643.596ZM463.637 643.696C458.267 645.778 452.856 647.605 447.312 649.361V653.016C449.845 659.486 452.402 665.78 454.858 671.644C459.771 670.063 464.601 668.413 469.423 666.553V662.898C467.661 656.776 465.739 650.34 463.637 643.696ZM260.744 651.293C259.238 658.118 257.757 664.651 256.432 670.871C256.313 671.964 256.432 673.443 256.432 674.536C261.344 676.013 266.36 677.341 271.348 678.545C273.277 672.521 275.388 666.053 277.42 659.409V655.754C271.8 654.423 266.253 652.95 260.744 651.293ZM441.164 651.293C435.62 652.95 430.111 654.423 424.498 655.754V659.409C426.503 666.045 428.532 672.528 430.538 678.545C435.547 677.341 440.564 676.013 445.476 674.537V670.871C444.15 664.651 442.746 658.118 441.164 651.293ZM283.735 657.134C282.604 664.057 281.733 670.798 280.831 677.065C280.755 678.158 280.831 679.62 280.831 680.72C285.847 681.772 290.93 682.756 296.023 683.536C297.501 677.414 299.072 670.844 300.654 664.046V660.391C294.964 659.416 289.251 658.359 283.735 657.134ZM418.347 657.134C412.728 658.367 407.008 659.417 401.319 660.391V664.046C402.901 670.767 404.379 677.337 405.961 683.536C411.047 682.651 416.143 681.771 421.153 680.643V676.999C420.279 670.703 419.402 664.057 418.347 657.134ZM395.103 661.253C389.386 662.047 383.701 662.756 377.887 663.174V666.829C378.942 673.731 380.089 680.394 381.143 686.683C386.306 686.237 391.421 685.614 396.478 684.938V681.283C396.124 674.988 395.63 668.239 395.103 661.253ZM306.901 661.341C306.373 668.236 305.924 674.982 305.57 681.272C305.541 682.372 305.57 683.837 305.57 684.938C307.984 685.307 310.378 685.598 312.786 685.877C313.611 685.967 314.461 686.046 315.294 686.13C316.411 686.249 317.525 686.387 318.649 686.484C319.412 686.561 320.178 686.623 320.948 686.694C321.996 680.398 323.051 673.73 324.105 666.939V663.273C322.066 663.092 320.051 662.875 318.033 662.666C317.117 662.561 316.192 662.483 315.283 662.379C312.48 662.065 309.697 661.724 306.901 661.341ZM330.519 663.704V667.359C330.519 674.359 330.598 681.073 330.772 687.39C335.865 687.724 341.055 687.92 346.217 687.997C346.745 681.603 347.263 674.882 347.79 667.966V664.311C341.997 664.311 336.292 664.059 330.519 663.704ZM371.485 663.704C365.796 664.052 359.98 664.3 354.214 664.3V667.966C354.714 674.889 355.337 681.603 355.942 687.997C361.131 687.926 366.321 687.718 371.386 687.39C371.491 680.996 371.486 674.261 371.486 667.359L371.485 663.704Z" fill="black"/>
<path d="M325.029 206.843V219.795H327.944C327.778 211.897 327.704 211.532 327.746 211.337C329.536 214.053 331.205 216.881 333.015 219.806H335.633V206.876H332.663C332.885 214.189 332.948 214.55 332.905 214.738C331.407 212.307 329.722 209.468 327.911 206.842L325.029 206.843ZM362.156 206.843V219.795H364.774C364.615 212.19 364.541 211.823 364.576 211.635C365.492 214.289 366.332 217.119 367.282 220.093H369.603C370.845 217.133 371.691 214.289 372.42 211.635V220.06H375.038V206.842H371.572C370.046 209.329 369.758 213.422 368.349 215.323C367.433 212.641 366.857 209.81 365.643 206.842L362.156 206.843ZM319.375 206.876V219.796H322.026V206.876H319.375ZM344.852 206.876V209.118C348.196 209.061 348.639 209.02 348.812 209.062V219.795H351.65V208.985H355.445V206.876L344.852 206.876ZM356.787 206.876V219.796H359.449V206.876H356.787ZM377.469 206.876V220.072H386.918V217.819H380.208V214.098H386.06V211.834C380.774 211.889 380.346 211.933 380.153 211.912V209.118H386.919V206.876L377.469 206.876Z" fill="white"/>
</svg>
